0
SECTION
2
HEADER
9
$INSUNITS
70
4
9
$ACADVER
1
AC1014
9
$HANDSEED
5
FFFF
0
ENDSEC
0
SECTION
2
TABLES
0
TABLE
2
VPORT
5
8
100
AcDbSymbolTable
0
ENDTAB
0
TABLE
2
LTYPE
5
5
100
AcDbSymbolTable
0
LTYPE
5
14
100
AcDbSymbolTableRecord
100
AcDbLinetypeTableRecord
2
BYBLOCK
70
0
0
LTYPE
5
15
100
AcDbSymbolTableRecord
100
AcDbLinetypeTableRecord
2
BYLAYER
70
0
0
ENDTAB
0
TABLE
2
LAYER
5
2
100
AcDbSymbolTable
70
2
0
LAYER
5
50
100
AcDbSymbolTableRecord
100
AcDbLayerTableRecord
2
0
70
0
6
CONTINUOUS
0
ENDTAB
0
TABLE
2
STYLE
5
3
100
AcDbSymbolTable
70
1
0
STYLE
5
11
100
AcDbSymbolTableRecord
100
AcDbTextStyleTableRecord
2
STANDARD
70
0
0
ENDTAB
0
TABLE
2
VIEW
5
6
100
AcDbSymbolTable
70
0
0
ENDTAB
0
TABLE
2
UCS
5
7
100
AcDbSymbolTable
70
0
0
ENDTAB
0
TABLE
2
APPID
5
9
100
AcDbSymbolTable
70
2
0
APPID
5
12
100
AcDbSymbolTableRecord
100
AcDbRegAppTableRecord
2
ACAD
70
0
0
ENDTAB
0
TABLE
2
DIMSTYLE
5
A
100
AcDbSymbolTable
70
1
0
ENDTAB
0
TABLE
2
BLOCK_RECORD
5
1
100
AcDbSymbolTable
70
1
0
BLOCK_RECORD
5
1F
100
AcDbSymbolTableRecord
100
AcDbBlockTableRecord
2
*MODEL_SPACE
0
BLOCK_RECORD
5
1B
100
AcDbSymbolTableRecord
100
AcDbBlockTableRecord
2
*PAPER_SPACE
0
ENDTAB
0
ENDSEC
0
SECTION
2
BLOCKS
0
BLOCK
5
20
100
AcDbEntity
100
AcDbBlockBegin
2
*MODEL_SPACE
0
ENDBLK
5
21
100
AcDbEntity
100
AcDbBlockEnd
0
BLOCK
5
1C
100
AcDbEntity
100
AcDbBlockBegin
2
*PAPER_SPACE
0
ENDBLK
5
1D
100
AcDbEntity
100
AcDbBlockEnd
0
ENDSEC
0
SECTION
2
ENTITIES
0
LWPOLYLINE
5
100
100
AcDbEntity
8
0
100
AcDbPolyline
90
8
70
1
43
0.0
10
-374
20
73.175000000000011
10
-374
20
60.175000000000011
42
-0.41421356237309503
10
-374.49999999999994
20
59.675000000000011
10
-387.50000578165054
20
59.67500000000004
42
-0.41421356237309503
10
-388.00000578165054
20
60.175000000000011
10
-388.00000578165054
20
73.175000000000011
42
-0.41421356237309503
10
-387.50000578165054
20
73.675000000000011
10
-374.49999999999989
20
73.674999999999912
42
-0.41421356237309503
0
LWPOLYLINE
5
101
100
AcDbEntity
8
0
100
AcDbPolyline
90
8
70
1
43
0.0
10
-335.89999999999998
20
73.175000000000011
10
-335.89999999999998
20
60.175000000000011
42
-0.41421356237309503
10
-336.39999999999992
20
59.675000000000011
10
-349.40000000000003
20
59.67500000000004
42
-0.41421356237309503
10
-349.90000000000003
20
60.175000000000011
10
-349.90000000000003
20
73.175000000000011
42
-0.41421356237309503
10
-349.40000000000003
20
73.675000000000011
10
-336.39999999999992
20
73.674999999999983
42
-0.41421356237309503
0
LWPOLYLINE
5
102
100
AcDbEntity
8
0
100
AcDbPolyline
90
8
70
1
43
0.0
10
-335.89999999999998
20
54.125000000000007
10
-335.89999999999998
20
41.125000000000007
42
-0.41421356237309503
10
-336.39999999999992
20
40.625000000000007
10
-387.5
20
40.625000000000036
42
-0.41421356237309503
10
-388
20
41.125000000000007
10
-388
20
54.125000000000007
42
-0.41421356237309503
10
-387.5
20
54.625
10
-336.39999999999992
20
54.624999999999979
42
-0.41421356237309503
0
LWPOLYLINE
5
103
100
AcDbEntity
8
0
100
AcDbPolyline
90
50
70
1
43
0.0
10
-220.33125000000001
20
88.725000000000009
10
-192.73750000000004
20
88.725000000000009
10
-192.73750000000001
20
92.224999999999994
42
-0.41421356237307422
10
-192.23750000000001
20
92.724999999999994
10
-167.33125000000001
20
92.725000000000023
42
-0.41421356237310542
10
-166.83125000000001
20
92.224999999999994
10
-166.83125000000001
20
88.725000000000009
10
-132.08750000000003
20
88.725000000000009
10
-132.08750000000003
20
92.224999999999994
42
-0.41421356237309503
10
-131.58750000000001
20
92.725000000000009
10
-120.83125000000001
20
92.725000000000009
42
-0.41421356237309503
10
-120.33125
20
92.224999999999994
10
-120.33125000000001
20
77.224999999999994
42
-0.41421356237309503
10
-120.83125000000001
20
76.725000000000009
10
-131.58750000000001
20
76.724999999999994
42
-0.41421356237309503
10
-132.08750000000003
20
77.224999999999994
10
-132.08750000000003
20
82.724999999999994
10
-166.83125000000001
20
82.724999999999994
10
-166.83125000000004
20
79.224999999999994
42
-0.4142135623730222
10
-167.33125000000001
20
78.724999999999994
10
-192.23750000000001
20
78.725000000000009
42
-0.41421356237312623
10
-192.73750000000004
20
79.224999999999994
10
-192.73750000000004
20
82.724999999999994
10
-220.33125000000001
20
82.724999999999994
10
-220.33125000000001
20
77.224999999999994
42
-0.41421356237309503
10
-220.83125000000001
20
76.725000000000009
10
-226.83125000000004
20
76.724999999999994
42
-0.41421356237309503
10
-227.33125000000004
20
77.224999999999994
10
-227.33125000000001
20
82.724999999999994
10
-238.26875000000001
20
82.724999999999994
10
-238.26874999999998
20
79.224999999999994
42
-0.41421356237307422
10
-238.76875000000001
20
78.724999999999994
10
-239.38749999999999
20
78.724999999999994
10
-239.38749999999999
20
77.224999999999994
42
-0.41421356237309503
10
-239.88749999999999
20
76.725000000000009
10
-245.88750000000002
20
76.724999999999994
42
-0.41421356237309503
10
-246.38750000000002
20
77.224999999999994
10
-246.38750000000002
20
78.724999999999994
10
-251.76875000000001
20
78.725000000000009
42
-0.41421356237312623
10
-252.26875000000004
20
79.224999999999994
10
-252.26875000000001
20
92.224999999999994
42
-0.41421356237307422
10
-251.76875000000001
20
92.724999999999994
10
-238.76875000000001
20
92.725000000000009
42
-0.41421356237313667
10
-238.26875000000001
20
92.224999999999994
10
-238.26875000000001
20
88.725000000000009
10
-227.33125000000001
20
88.725000000000009
10
-227.33125000000004
20
92.224999999999994
42
-0.41421356237309503
10
-226.83125000000004
20
92.725000000000009
10
-220.83125000000001
20
92.725000000000009
42
-0.41421356237309503
10
-220.33125000000001
20
92.224999999999994
0
CIRCLE
5
104
100
AcDbEntity
8
0
100
AcDbCircle
10
-40.481250000000003
20
38.100000000000009
30
0
40
0.75000000000000178
210
0
220
-0
230
1
0
LWPOLYLINE
5
105
100
AcDbEntity
8
0
100
AcDbPolyline
90
8
70
1
43
0.0
10
-275.58125000000007
20
92.724999999999994
10
-260.19999999999999
20
92.725000000000009
42
-0.41421356237313667
10
-259.69999999999999
20
92.224999999999994
10
-259.69999999999993
20
79.224999999999994
42
-0.41421356237307422
10
-260.19999999999999
20
78.724999999999994
10
-275.58125000000007
20
78.725000000000009
42
-0.41421356237310025
10
-276.08125000000001
20
79.224999999999994
10
-276.08125000000001
20
92.224999999999994
42
-0.41421356237307422
0
LWPOLYLINE
5
106
100
AcDbEntity
8
0
100
AcDbPolyline
90
8
70
1
43
0.0
10
-299.39375000000001
20
92.724999999999994
10
-284.01249999999999
20
92.725000000000009
42
-0.41421356237313667
10
-283.51249999999999
20
92.224999999999994
10
-283.51249999999999
20
79.224999999999994
42
-0.41421356237307422
10
-284.01249999999999
20
78.724999999999994
10
-299.39375000000001
20
78.724999999999994
42
-0.41421356237313667
10
-299.89375000000001
20
79.224999999999994
10
-299.89375000000001
20
92.224999999999994
42
-0.4142135623730846
0
LWPOLYLINE
5
107
100
AcDbEntity
8
0
100
AcDbPolyline
90
8
70
1
43
0.0
10
-323.20625000000001
20
92.724999999999994
10
-307.82499999999999
20
92.724999999999966
42
-0.41421356237309503
10
-307.32500000000005
20
92.224999999999994
10
-307.32500000000005
20
79.224999999999994
42
-0.4142135623730222
10
-307.82499999999999
20
78.724999999999994
10
-323.20625000000001
20
78.724999999999966
42
-0.4142135623730846
10
-323.70625000000007
20
79.224999999999994
10
-323.70624999999995
20
92.224999999999994
42
-0.41421356237318868
0
LWPOLYLINE
5
108
100
AcDbEntity
8
0
100
AcDbPolyline
90
8
70
1
43
0.0
10
-374.5
20
78.724999999999994
42
0.41421356237310542
10
-374.00000000000006
20
79.224999999999994
10
-374
20
92.224999999999994
42
0.41421356237303258
10
-374.5
20
92.725000000000051
10
-387.5
20
92.724999999999994
42
0.41421356237310542
10
-388
20
92.224999999999994
10
-388.00000000000006
20
79.224999999999994
42
0.4142135623730222
10
-387.5
20
78.724999999999952
0
LWPOLYLINE
5
109
100
AcDbEntity
8
0
100
AcDbPolyline
90
8
70
1
43
0.0
10
-355.45000000000005
20
78.724999999999994
42
0.41421356237310542
10
-354.95000000000005
20
79.224999999999994
10
-354.94999999999999
20
92.224999999999994
42
0.41421356237303258
10
-355.45000000000005
20
92.725000000000051
10
-368.44999999999999
20
92.724999999999994
42
0.41421356237310542
10
-368.94999999999993
20
92.224999999999994
10
-368.95000000000005
20
79.224999999999994
42
0.4142135623730222
10
-368.44999999999999
20
78.724999999999952
0
LWPOLYLINE
5
110
100
AcDbEntity
8
0
100
AcDbPolyline
90
8
70
1
43
0.0
10
-336.39999999999998
20
78.724999999999994
42
0.41421356237310542
10
-335.90000000000003
20
79.224999999999994
10
-335.89999999999998
20
92.224999999999994
42
0.41421356237303258
10
-336.39999999999998
20
92.725000000000051
10
-349.39999999999998
20
92.724999999999994
42
0.41421356237310542
10
-349.89999999999998
20
92.224999999999994
10
-349.90000000000003
20
79.224999999999994
42
0.4142135623730222
10
-349.39999999999998
20
78.724999999999952
0
LWPOLYLINE
5
111
100
AcDbEntity
8
0
100
AcDbPolyline
90
8
70
1
43
0.0
10
-184.00000000000003
20
59.675000000000004
42
0.41421356237307422
10
-183.49999999999997
20
60.174999999999997
10
-183.5
20
73.174999999999997
42
0.41421356237313145
10
-184.00000000000003
20
73.675000000000011
10
-197.00000000000003
20
73.674999999999997
42
0.4142135623730222
10
-197.50000000000003
20
73.174999999999997
10
-197.5
20
60.174999999999997
42
0.41421356237310025
10
-197.00000000000003
20
59.675000000000026
0
LWPOLYLINE
5
112
100
AcDbEntity
8
0
100
AcDbPolyline
90
8
70
1
43
0.0
10
-311.35674999999998
20
60.674999999999997
42
0.4142135623730222
10
-310.85675000000003
20
61.174999999999997
10
-310.85674999999998
20
75.174999999999997
42
0.41421356237312623
10
-311.35674999999998
20
75.675000000000011
10
-317.35675000000003
20
75.674999999999997
42
0.4142135623730222
10
-317.85675000000003
20
75.174999999999997
10
-317.85674999999998
20
61.174999999999997
42
0.41421356237310025
10
-317.35675000000003
20
60.675000000000026
0
LWPOLYLINE
5
113
100
AcDbEntity
8
0
100
AcDbPolyline
90
8
70
1
43
0.0
10
-355.45000000000005
20
59.675000000000004
42
0.41421356237310542
10
-354.95000000000005
20
60.174999999999997
10
-354.94999999999999
20
73.174999999999997
42
0.41421356237302737
10
-355.45000000000005
20
73.67500000000004
10
-368.44999999999999
20
73.674999999999997
42
0.41421356237311585
10
-368.94999999999993
20
73.174999999999997
10
-368.95000000000005
20
60.174999999999997
42
0.4142135623730222
10
-368.44999999999999
20
59.674999999999955
0
LWPOLYLINE
5
114
100
AcDbEntity
8
0
100
AcDbPolyline
90
8
70
1
43
0.0
10
-3.0249999999999999
20
78.724999999999994
42
0.41421356237309698
10
-2.5249999999999986
20
79.224999999999994
10
-2.5249999999999999
20
92.224999999999994
42
0.41421356237310542
10
-3.0249999999999999
20
92.725000000000009
10
-16.024999999999999
20
92.724999999999994
42
0.41421356237311452
10
-16.524999999999991
20
92.224999999999994
10
-16.524999999999999
20
79.224999999999994
42
0.41421356237309764
10
-16.024999999999999
20
78.724999999999994
0
LWPOLYLINE
5
115
100
AcDbEntity
8
0
100
AcDbPolyline
90
8
70
1
43
0.0
10
-22.074999999999999
20
78.724999999999994
42
0.41421356237309764
10
-21.574999999999996
20
79.224999999999994
10
-21.575000000000003
20
92.224999999999994
42
0.41421356237310802
10
-22.074999999999999
20
92.725000000000009
10
-35.075000000000003
20
92.724999999999994
42
0.41421356237311324
10
-35.574999999999989
20
92.224999999999994
10
-35.575000000000003
20
79.224999999999994
42
0.41421356237308204
10
-35.075000000000003
20
78.724999999999994
0
LWPOLYLINE
5
116
100
AcDbEntity
8
0
100
AcDbPolyline
90
8
70
1
43
0.0
10
-241.15000000000003
20
59.675000000000004
42
0.4142135623730222
10
-240.65000000000003
20
60.174999999999997
10
-240.65000000000001
20
73.174999999999997
42
0.41421356237312101
10
-241.15000000000003
20
73.675000000000011
10
-254.15000000000003
20
73.674999999999997
42
0.41421356237307422
10
-254.65000000000003
20
73.174999999999997
10
-254.65000000000003
20
60.174999999999997
42
0.41421356237313667
10
-254.15000000000003
20
59.674999999999997
0
LWPOLYLINE
5
117
100
AcDbEntity
8
0
100
AcDbPolyline
90
8
70
1
43
0.0
10
-203.05000000000004
20
59.675000000000004
42
0.41421356237307422
10
-202.54999999999998
20
60.174999999999997
10
-202.55000000000001
20
73.174999999999997
42
0.41421356237313145
10
-203.05000000000004
20
73.675000000000011
10
-216.05000000000004
20
73.674999999999997
42
0.4142135623730222
10
-216.55000000000004
20
73.174999999999997
10
-216.55000000000001
20
60.174999999999997
42
0.41421356237310025
10
-216.05000000000004
20
59.675000000000026
0
LWPOLYLINE
5
118
100
AcDbEntity
8
0
100
AcDbPolyline
90
8
70
1
43
0.0
10
-222.10000000000002
20
59.675000000000004
42
0.4142135623730222
10
-221.60000000000002
20
60.174999999999997
10
-221.59999999999999
20
73.174999999999997
42
0.41421356237312101
10
-222.10000000000002
20
73.675000000000011
10
-235.10000000000002
20
73.674999999999997
42
0.41421356237307422
10
-235.60000000000002
20
73.174999999999997
10
-235.60000000000002
20
60.174999999999997
42
0.41421356237313667
10
-235.10000000000002
20
59.674999999999997
0
LWPOLYLINE
5
119
100
AcDbEntity
8
0
100
AcDbPolyline
90
8
70
1
43
0.0
10
-63.650000000000006
20
92.724999999999994
10
-48.268750000000004
20
92.725000000000009
42
-0.41421356237309503
10
-47.768749999999997
20
92.224999999999994
10
-47.768750000000004
20
79.224999999999994
42
-0.41421356237309503
10
-48.268750000000004
20
78.724999999999994
10
-63.650000000000006
20
78.724999999999994
42
-0.41421356237311585
10
-64.150000000000006
20
79.224999999999994
10
-64.149999999999977
20
92.224999999999994
42
-0.41421356237311063
0
LWPOLYLINE
5
120
100
AcDbEntity
8
0
100
AcDbPolyline
90
8
70
1
43
0.0
10
-111.27500000000001
20
92.724999999999994
10
-95.893750000000011
20
92.725000000000009
42
-0.41421356237309503
10
-95.393749999999997
20
92.224999999999994
10
-95.393749999999997
20
79.224999999999994
42
-0.41421356237310542
10
-95.893750000000011
20
78.724999999999994
10
-111.27500000000001
20
78.72499999999998
42
-0.41421356237310025
10
-111.77500000000002
20
79.224999999999994
10
-111.77500000000001
20
92.224999999999994
42
-0.41421356237313667
0
LWPOLYLINE
5
121
100
AcDbEntity
8
0
100
AcDbPolyline
90
8
70
1
43
0.0
10
-87.46250000000002
20
92.724999999999994
10
-72.081249999999997
20
92.725000000000009
42
-0.41421356237308982
10
-71.581249999999997
20
92.224999999999994
10
-71.581249999999997
20
79.224999999999994
42
-0.41421356237309503
10
-72.081249999999997
20
78.724999999999994
10
-87.46250000000002
20
78.725000000000009
42
-0.41421356237309503
10
-87.962500000000006
20
79.224999999999994
10
-87.962499999999991
20
92.224999999999994
42
-0.41421356237312623
0
LWPOLYLINE
5
122
100
AcDbEntity
8
0
100
AcDbPolyline
90
8
70
1
43
0.0
10
-260.19999999999999
20
59.675000000000004
42
0.41421356237307422
10
-259.69999999999993
20
60.174999999999997
10
-259.69999999999999
20
73.174999999999997
42
0.41421356237313145
10
-260.19999999999999
20
73.675000000000011
10
-273.19999999999999
20
73.674999999999997
42
0.4142135623730222
10
-273.69999999999999
20
73.174999999999997
10
-273.69999999999999
20
60.174999999999997
42
0.41421356237312623
10
-273.19999999999999
20
59.674999999999997
0
LWPOLYLINE
5
123
100
AcDbEntity
8
0
100
AcDbPolyline
90
8
70
1
43
0.0
10
-295.91875000000005
20
59.675000000000004
42
0.4142135623730222
10
-295.41875000000005
20
60.174999999999997
10
-295.41874999999999
20
73.174999999999997
42
0.41421356237312101
10
-295.91875000000005
20
73.675000000000011
10
-308.91874999999999
20
73.674999999999997
42
0.4142135623730222
10
-309.41874999999999
20
73.174999999999997
10
-309.41874999999999
20
60.174999999999997
42
0.41421356237312623
10
-308.91874999999999
20
59.674999999999997
0
LWPOLYLINE
5
124
100
AcDbEntity
8
0
100
AcDbPolyline
90
8
70
1
43
0.0
10
-287.48075
20
60.674999999999997
42
0.4142135623730222
10
-286.98075000000006
20
61.174999999999997
10
-286.98075000000006
20
75.174999999999997
42
0.41421356237310025
10
-287.48075
20
75.674999999999969
10
-293.48075
20
75.674999999999997
42
0.4142135623730222
10
-293.98075
20
75.174999999999997
10
-293.98075
20
61.174999999999997
42
0.41421356237312623
10
-293.48075
20
60.67499999999999
0
LWPOLYLINE
5
125
100
AcDbEntity
8
0
100
AcDbPolyline
90
8
70
1
43
0.0
10
-174.47500000000002
20
40.625
42
0.41421356237307422
10
-173.97499999999997
20
41.125
10
-173.97500000000002
20
54.125000000000007
42
0.41421356237313145
10
-174.47500000000002
20
54.625000000000014
10
-187.47499999999999
20
54.625
42
0.41421356237307422
10
-187.97499999999999
20
54.125000000000007
10
-187.97499999999999
20
41.125
42
0.41421356237313145
10
-187.47499999999999
20
40.624999999999993
0
LWPOLYLINE
5
126
100
AcDbEntity
8
0
100
AcDbPolyline
90
8
70
1
43
0.0
10
-269.72500000000002
20
40.625
42
0.4142135623730222
10
-269.22500000000008
20
41.125
10
-269.22500000000002
20
54.125000000000007
42
0.41421356237312101
10
-269.72500000000002
20
54.625000000000014
10
-282.72500000000002
20
54.625
42
0.41421356237307422
10
-283.22500000000002
20
54.125000000000007
10
-283.22500000000002
20
41.125
42
0.41421356237313145
10
-282.72500000000002
20
40.624999999999993
0
LWPOLYLINE
5
127
100
AcDbEntity
8
0
100
AcDbPolyline
90
8
70
1
43
0.0
10
-292.24324999999999
20
41.625000000000007
42
0.4142135623730222
10
-291.74325000000005
20
42.125
10
-291.74324999999999
20
56.125000000000007
42
0.41421356237312623
10
-292.24324999999999
20
56.625000000000014
10
-298.24324999999999
20
56.625000000000007
42
0.4142135623730222
10
-298.74325000000005
20
56.125000000000007
10
-298.74324999999999
20
42.125
42
0.41421356237310025
10
-298.24324999999999
20
41.625000000000028
0
LWPOLYLINE
5
128
100
AcDbEntity
8
0
100
AcDbPolyline
90
8
70
1
43
0.0
10
-316.11925000000002
20
41.625000000000007
42
0.41421356237307422
10
-315.61924999999997
20
42.125
10
-315.61925000000002
20
56.125000000000007
42
0.41421356237313667
10
-316.11925000000002
20
56.625000000000014
10
-322.11925000000002
20
56.625000000000007
42
0.41421356237318868
10
-322.61924999999997
20
56.125000000000007
10
-322.61925000000008
20
42.125
42
0.4142135623730846
10
-322.11925000000002
20
41.624999999999957
0
LWPOLYLINE
5
129
100
AcDbEntity
8
0
100
AcDbPolyline
90
8
70
1
43
0.0
10
-231.625
20
40.625
42
0.4142135623730222
10
-231.12500000000006
20
41.125
10
-231.125
20
54.125000000000007
42
0.41421356237312101
10
-231.625
20
54.625000000000014
10
-244.62500000000003
20
54.625
42
0.41421356237307422
10
-245.12500000000003
20
54.125000000000007
10
-245.12500000000003
20
41.125
42
0.41421356237313145
10
-244.62500000000003
20
40.624999999999993
0
LWPOLYLINE
5
130
100
AcDbEntity
8
0
100
AcDbPolyline
90
8
70
1
43
0.0
10
-300.58124499320979
20
40.625
42
0.41421356237307422
10
-300.08124499320974
20
41.125
10
-300.08124499320979
20
54.125000000000007
42
0.41421356237313145
10
-300.58124499320979
20
54.625000000000014
10
-313.58124499320979
20
54.625
42
0.4142135623730222
10
-314.08124499320979
20
54.125000000000007
10
-314.08124499320979
20
41.125
42
0.41421356237312101
10
-313.58124499320979
20
40.624999999999993
0
LWPOLYLINE
5
131
100
AcDbEntity
8
0
100
AcDbPolyline
90
8
70
1
43
0.0
10
-250.67500000000001
20
40.625
42
0.4142135623730222
10
-250.17500000000007
20
41.125
10
-250.17500000000001
20
54.125000000000007
42
0.41421356237312101
10
-250.67500000000001
20
54.625000000000014
10
-263.67500000000001
20
54.625
42
0.41421356237307422
10
-264.17500000000007
20
54.125000000000007
10
-264.17500000000007
20
41.125
42
0.41421356237313145
10
-263.67500000000001
20
40.624999999999993
0
LWPOLYLINE
5
132
100
AcDbEntity
8
0
100
AcDbPolyline
90
8
70
1
43
0.0
10
-155.42500000000001
20
40.625
42
0.41421356237310025
10
-154.92500000000004
20
41.125
10
-154.92500000000001
20
54.125000000000007
42
0.41421356237307422
10
-155.42500000000001
20
54.625000000000014
10
-168.42500000000001
20
54.625
42
0.4142135623730222
10
-168.92500000000001
20
54.125000000000007
10
-168.92500000000001
20
41.125
42
0.41421356237312101
10
-168.42500000000001
20
40.624999999999993
0
LWPOLYLINE
5
133
100
AcDbEntity
8
0
100
AcDbPolyline
90
8
70
1
43
0.0
10
-3.0249999999999999
20
59.675000000000004
42
0.41421356237309698
10
-2.5249999999999986
20
60.174999999999997
10
-2.5249999999999999
20
73.174999999999997
42
0.41421356237309404
10
-3.0249999999999999
20
73.674999999999997
10
-16.024999999999999
20
73.674999999999997
42
0.41421356237309503
10
-16.524999999999999
20
73.174999999999997
10
-16.524999999999999
20
60.174999999999997
42
0.41421356237309764
10
-16.024999999999999
20
59.675000000000004
0
LWPOLYLINE
5
134
100
AcDbEntity
8
0
100
AcDbPolyline
90
8
70
1
43
0.0
10
-212.57499999999999
20
40.625
42
0.4142135623730222
10
-212.07500000000005
20
41.125
10
-212.07499999999999
20
54.125000000000007
42
0.41421356237312101
10
-212.57499999999999
20
54.625000000000014
10
-225.57500000000002
20
54.625
42
0.41421356237307422
10
-226.07500000000002
20
54.125000000000007
10
-226.07500000000002
20
41.125
42
0.41421356237313145
10
-225.57500000000002
20
40.624999999999993
0
LWPOLYLINE
5
135
100
AcDbEntity
8
0
100
AcDbPolyline
90
8
70
1
43
0.0
10
-193.52500000000003
20
40.625
42
0.41421356237307422
10
-193.02499999999998
20
41.125
10
-193.02500000000003
20
54.125000000000007
42
0.41421356237313145
10
-193.52500000000003
20
54.625000000000014
10
-206.52500000000003
20
54.625
42
0.4142135623730222
10
-207.02500000000003
20
54.125000000000007
10
-207.02500000000001
20
41.125
42
0.41421356237310025
10
-206.52500000000003
20
40.625000000000028
0
LWPOLYLINE
5
136
100
AcDbEntity
8
0
100
AcDbPolyline
90
8
70
1
43
0.0
10
-22.074999999999999
20
59.675000000000004
42
0.41421356237309764
10
-21.574999999999996
20
60.174999999999997
10
-21.575000000000003
20
73.174999999999997
42
0.41421356237309503
10
-22.074999999999999
20
73.674999999999997
10
-35.075000000000003
20
73.674999999999997
42
0.41421356237309503
10
-35.575000000000003
20
73.174999999999997
10
-35.575000000000003
20
60.174999999999997
42
0.41421356237308204
10
-35.075000000000003
20
59.674999999999997
0
LWPOLYLINE
5
137
100
AcDbEntity
8
0
100
AcDbPolyline
90
8
70
1
43
0.0
10
-145.90000000000001
20
59.675000000000004
42
0.41421356237310542
10
-145.40000000000003
20
60.174999999999997
10
-145.40000000000001
20
73.174999999999997
42
0.41421356237307422
10
-145.90000000000001
20
73.675000000000011
10
-158.90000000000001
20
73.674999999999997
42
0.41421356237308982
10
-159.40000000000001
20
73.174999999999997
10
-159.40000000000001
20
60.174999999999997
42
0.41421356237310025
10
-158.90000000000001
20
59.674999999999997
0
LWPOLYLINE
5
138
100
AcDbEntity
8
0
100
AcDbPolyline
90
8
70
1
43
0.0
10
-49.35575
20
60.674999999999997
42
0.41421356237310542
10
-48.85575
20
61.174999999999997
10
-48.85575
20
75.174999999999997
42
0.41421356237310542
10
-49.35575
20
75.674999999999997
10
-55.355750000000008
20
75.674999999999997
42
0.41421356237309503
10
-55.85575
20
75.174999999999997
10
-55.85575
20
61.174999999999997
42
0.41421356237309503
10
-55.355750000000008
20
60.674999999999997
0
LWPOLYLINE
5
139
100
AcDbEntity
8
0
100
AcDbPolyline
90
8
70
1
43
0.0
10
-107.80000000000001
20
59.675000000000004
42
0.41421356237310542
10
-107.30000000000001
20
60.174999999999997
10
-107.30000000000001
20
73.174999999999997
42
0.41421356237309503
10
-107.80000000000001
20
73.675000000000011
10
-120.8
20
73.674999999999997
42
0.41421356237310025
10
-121.29999999999998
20
73.174999999999997
10
-121.30000000000001
20
60.174999999999997
42
0.41421356237307944
10
-120.8
20
59.674999999999997
0
LWPOLYLINE
5
140
100
AcDbEntity
8
0
100
AcDbPolyline
90
8
70
1
43
0.0
10
-126.85000000000001
20
59.675000000000004
42
0.41421356237310542
10
-126.35000000000002
20
60.174999999999997
10
-126.34999999999999
20
73.174999999999997
42
0.41421356237307422
10
-126.85000000000001
20
73.675000000000011
10
-139.84999999999999
20
73.674999999999997
42
0.41421356237308982
10
-140.34999999999999
20
73.174999999999997
10
-140.34999999999999
20
60.174999999999997
42
0.41421356237310025
10
-139.84999999999999
20
59.674999999999997
0
LWPOLYLINE
5
141
100
AcDbEntity
8
0
100
AcDbPolyline
90
8
70
1
43
0.0
10
-57.79375000000001
20
59.675000000000004
42
0.41421356237309503
10
-57.29375000000001
20
60.174999999999997
10
-57.29375000000001
20
73.174999999999997
42
0.41421356237309503
10
-57.79375000000001
20
73.674999999999997
10
-70.793750000000003
20
73.674999999999997
42
0.41421356237309503
10
-71.293750000000003
20
73.174999999999997
10
-71.293750000000003
20
60.174999999999997
42
0.41421356237310542
10
-70.793750000000003
20
59.675000000000004
0
LWPOLYLINE
5
142
100
AcDbEntity
8
0
100
AcDbPolyline
90
8
70
1
43
0.0
10
-164.95000000000002
20
59.675000000000004
42
0.41421356237307422
10
-164.44999999999996
20
60.174999999999997
10
-164.44999999999999
20
73.174999999999997
42
0.41421356237313145
10
-164.95000000000002
20
73.675000000000011
10
-177.94999999999999
20
73.674999999999997
42
0.41421356237307422
10
-178.44999999999999
20
73.174999999999997
10
-178.44999999999999
20
60.174999999999997
42
0.41421356237313667
10
-177.94999999999999
20
59.674999999999997
0
LWPOLYLINE
5
143
100
AcDbEntity
8
0
100
AcDbPolyline
90
8
70
1
43
0.0
10
-73.231750000000005
20
60.674999999999997
42
0.41421356237310542
10
-72.731750000000005
20
61.174999999999997
10
-72.731750000000005
20
75.174999999999997
42
0.41421356237310542
10
-73.231750000000005
20
75.674999999999997
10
-79.231750000000005
20
75.674999999999997
42
0.41421356237310542
10
-79.731750000000005
20
75.174999999999997
10
-79.731750000000005
20
61.174999999999997
42
0.41421356237311585
10
-79.231750000000005
20
60.67499999999999
0
LWPOLYLINE
5
144
100
AcDbEntity
8
0
100
AcDbPolyline
90
8
70
1
43
0.0
10
-88.75
20
59.675000000000004
42
0.41421356237310542
10
-88.25
20
60.174999999999997
10
-88.250000000000014
20
73.174999999999997
42
0.41421356237311585
10
-88.75
20
73.674999999999983
10
-101.75
20
73.674999999999997
42
0.41421356237308982
10
-102.25000000000001
20
73.174999999999997
10
-102.25000000000001
20
60.174999999999997
42
0.41421356237310025
10
-101.75
20
59.674999999999997
0
LWPOLYLINE
5
145
100
AcDbEntity
8
0
100
AcDbPolyline
90
8
70
1
43
0.0
10
-198.28749999999999
20
2.5249999999999999
42
0.41421356237304624
10
-197.78749999999999
20
3.0249999999999999
10
-197.78750000000002
20
16.024999999999999
42
0.41421356237309631
10
-198.28749999999999
20
16.52499999999997
10
-211.28749999999999
20
16.524999999999999
42
0.41421356237307683
10
-211.78750000000002
20
16.024999999999999
10
-211.78750000000002
20
3.0249999999999999
42
0.41421356237313273
10
-211.28749999999999
20
2.5249999999999928
0
LWPOLYLINE
5
146
100
AcDbEntity
8
0
100
AcDbPolyline
90
8
70
1
43
0.0
10
-217.33750000000001
20
2.5249999999999999
42
0.41421356237304624
10
-216.83750000000001
20
3.0249999999999999
10
-216.83750000000003
20
16.024999999999999
42
0.41421356237309631
10
-217.33750000000001
20
16.52499999999997
10
-230.33750000000001
20
16.524999999999999
42
0.41421356237307683
10
-230.83750000000003
20
16.024999999999999
10
-230.83750000000003
20
3.0249999999999999
42
0.41421356237313273
10
-230.33750000000001
20
2.5249999999999928
0
LWPOLYLINE
5
147
100
AcDbEntity
8
0
100
AcDbPolyline
90
8
70
1
43
0.0
10
-236.38750000000002
20
2.5249999999999999
42
0.41421356237304624
10
-235.88750000000002
20
3.0249999999999999
10
-235.88750000000002
20
16.024999999999999
42
0.41421356237312362
10
-236.38750000000002
20
16.525000000000006
10
-249.38749999999999
20
16.524999999999999
42
0.41421356237304563
10
-249.88749999999999
20
16.024999999999999
10
-249.88749999999999
20
3.0249999999999999
42
0.41421356237310153
10
-249.38749999999999
20
2.5249999999999928
0
LWPOLYLINE
5
148
100
AcDbEntity
8
0
100
AcDbPolyline
90
8
70
1
43
0.0
10
-255.43750000000003
20
2.5249999999999999
42
0.41421356237304624
10
-254.93750000000003
20
3.0249999999999999
10
-254.93750000000003
20
16.024999999999999
42
0.41421356237312362
10
-255.43750000000003
20
16.525000000000006
10
-268.4375
20
16.524999999999999
42
0.41421356237304563
10
-268.9375
20
16.024999999999999
10
-268.9375
20
3.0249999999999999
42
0.41421356237310153
10
-268.4375
20
2.5249999999999928
0
LWPOLYLINE
5
149
100
AcDbEntity
8
0
100
AcDbPolyline
90
8
70
1
43
0.0
10
-274.48750000000007
20
2.5249999999999999
42
0.41421356237304624
10
-273.98750000000001
20
3.0249999999999999
10
-273.98750000000001
20
16.024999999999999
42
0.41421356237312362
10
-274.48750000000007
20
16.525000000000006
10
-287.48750000000001
20
16.524999999999999
42
0.41421356237304563
10
-287.98750000000001
20
16.024999999999999
10
-287.98750000000001
20
3.0249999999999999
42
0.41421356237310153
10
-287.48750000000001
20
2.5249999999999928
0
LWPOLYLINE
5
150
100
AcDbEntity
8
0
100
AcDbPolyline
90
8
70
1
43
0.0
10
-303.0625
20
2.5249999999999999
42
0.41421356237307749
10
-302.5625
20
3.0249999999999999
10
-302.5625
20
16.024999999999999
42
0.41421356237313406
10
-303.0625
20
16.525000000000006
10
-316.0625
20
16.524999999999999
42
0.41421356237304563
10
-316.56250000000006
20
16.024999999999999
10
-316.5625
20
3.0249999999999999
42
0.41421356237309631
10
-316.0625
20
2.5250000000000283
0
LWPOLYLINE
5
151
100
AcDbEntity
8
0
100
AcDbPolyline
90
8
70
1
43
0.0
10
-294.62450000000001
20
3.5250000000000004
42
0.41421356237302509
10
-294.12450000000007
20
4.0250000000000004
10
-294.12450000000001
20
18.024999999999999
42
0.41421356237312235
10
-294.62450000000001
20
18.525000000000006
10
-300.62450000000001
20
18.524999999999999
42
0.4142135623730781
10
-301.12450000000001
20
18.024999999999999
10
-301.12450000000001
20
4.0250000000000004
42
0.41421356237313273
10
-300.62450000000001
20
3.5249999999999937
0
LWPOLYLINE
5
152
100
AcDbEntity
8
0
100
AcDbPolyline
90
8
70
1
43
0.0
10
-318.50049999999999
20
3.5250000000000004
42
0.41421356237307716
10
-318.00049999999993
20
4.0250000000000004
10
-318.00049999999999
20
18.024999999999999
42
0.41421356237313273
10
-318.50049999999999
20
18.525000000000006
10
-324.50049999999999
20
18.524999999999999
42
0.41421356237319257
10
-325.00049999999993
20
18.024999999999999
10
-325.00049999999999
20
4.0250000000000004
42
0.41421356237309243
10
-324.50049999999999
20
3.5249999999999582
0
LWPOLYLINE
5
153
100
AcDbEntity
8
0
100
AcDbPolyline
90
8
70
1
43
0.0
10
-336.39999999999998
20
2.5249999999999999
42
0.41421356237310997
10
-335.90000000000003
20
3.0249999999999999
10
-335.89999999999998
20
16.024999999999999
42
0.41421356237302998
10
-336.39999999999998
20
16.525000000000041
10
-349.39999999999998
20
16.524999999999999
42
0.41421356237311063
10
-349.89999999999998
20
16.024999999999999
10
-349.90000000000003
20
3.0249999999999999
42
0.41421356237303031
10
-349.39999999999998
20
2.5249999999999573
0
LWPOLYLINE
5
154
100
AcDbEntity
8
0
100
AcDbPolyline
90
8
70
1
43
0.0
10
-355.45000000000005
20
2.5249999999999999
42
0.41421356237310997
10
-354.95000000000005
20
3.0249999999999999
10
-354.94999999999999
20
16.024999999999999
42
0.41421356237302998
10
-355.45000000000005
20
16.525000000000041
10
-368.44999999999999
20
16.524999999999999
42
0.41421356237311063
10
-368.94999999999993
20
16.024999999999999
10
-368.95000000000005
20
3.0249999999999999
42
0.41421356237303031
10
-368.44999999999999
20
2.5249999999999573
0
LWPOLYLINE
5
155
100
AcDbEntity
8
0
100
AcDbPolyline
90
8
70
1
43
0.0
10
-374.5
20
2.5249999999999999
42
0.41421356237310997
10
-374.00000000000006
20
3.0249999999999999
10
-374
20
16.024999999999999
42
0.41421356237302998
10
-374.5
20
16.525000000000041
10
-387.5
20
16.524999999999999
42
0.41421356237311063
10
-388
20
16.024999999999999
10
-388.00000000000006
20
3.0249999999999999
42
0.41421356237303031
10
-387.5
20
2.5249999999999573
0
LWPOLYLINE
5
156
100
AcDbEntity
8
0
100
AcDbPolyline
90
8
70
1
43
0.0
10
-3.0249999999999999
20
21.575000000000003
42
0.4142135623730957
10
-2.5250000000000004
20
22.074999999999999
10
-2.5249999999999999
20
35.075000000000003
42
0.41421356237309537
10
-3.0249999999999999
20
35.575000000000003
10
-16.024999999999999
20
35.575000000000003
42
0.41421356237309503
10
-16.525000000000002
20
35.075000000000003
10
-16.524999999999999
20
22.074999999999999
42
0.41421356237309631
10
-16.024999999999999
20
21.575000000000003
0
LWPOLYLINE
5
157
100
AcDbEntity
8
0
100
AcDbPolyline
90
8
70
1
43
0.0
10
-22.074999999999999
20
21.575000000000003
42
0.41421356237309503
10
-21.575000000000003
20
22.074999999999999
10
-21.575000000000003
20
35.075000000000003
42
0.41421356237309503
10
-22.074999999999999
20
35.575000000000003
10
-35.075000000000003
20
35.575000000000003
42
0.41421356237310025
10
-35.575000000000003
20
35.075000000000003
10
-35.575000000000003
20
22.074999999999999
42
0.41421356237310281
10
-35.075000000000003
20
21.574999999999996
0
LWPOLYLINE
5
158
100
AcDbEntity
8
0
100
AcDbPolyline
90
8
70
1
43
0.0
10
-50.650000000000006
20
21.575000000000003
42
0.41421356237309503
10
-50.150000000000006
20
22.074999999999999
10
-50.150000000000006
20
35.075000000000003
42
0.41421356237309503
10
-50.650000000000006
20
35.575000000000003
10
-63.650000000000006
20
35.575000000000003
42
0.41421356237308204
10
-64.150000000000006
20
35.075000000000003
10
-64.150000000000006
20
22.074999999999999
42
0.41421356237310281
10
-63.650000000000006
20
21.574999999999992
0
LWPOLYLINE
5
159
100
AcDbEntity
8
0
100
AcDbPolyline
90
8
70
1
43
0.0
10
-188.76249999999999
20
21.575000000000003
42
0.41421356237305079
10
-188.26249999999999
20
22.074999999999999
10
-188.26249999999999
20
35.075000000000003
42
0.41421356237310025
10
-188.76249999999999
20
35.57500000000001
10
-201.76249999999999
20
35.575000000000003
42
0.41421356237313145
10
-202.26249999999999
20
35.075000000000003
10
-202.26249999999999
20
22.074999999999999
42
0.41421356237313406
10
-201.76249999999999
20
21.574999999999992
0
LWPOLYLINE
5
160
100
AcDbEntity
8
0
100
AcDbPolyline
90
8
70
1
43
0.0
10
-74.462500000000006
20
21.575000000000003
42
0.41421356237309764
10
-73.96250000000002
20
22.074999999999999
10
-73.962500000000006
20
35.075000000000003
42
0.41421356237309764
10
-74.462500000000006
20
35.575000000000003
10
-87.46250000000002
20
35.575000000000003
42
0.41421356237307161
10
-87.96250000000002
20
35.075000000000003
10
-87.962500000000006
20
22.074999999999999
42
0.41421356237309764
10
-87.46250000000002
20
21.57500000000001
0
LWPOLYLINE
5
161
100
AcDbEntity
8
0
100
AcDbPolyline
90
8
70
1
43
0.0
10
-169.71250000000001
20
21.575000000000003
42
0.41421356237308204
10
-169.21250000000001
20
22.074999999999999
10
-169.21250000000001
20
35.075000000000003
42
0.41421356237313145
10
-169.71250000000001
20
35.57500000000001
10
-182.71250000000003
20
35.575000000000003
42
0.41421356237312101
10
-183.21250000000003
20
35.075000000000003
10
-183.21250000000003
20
22.074999999999999
42
0.41421356237310281
10
-182.71250000000003
20
21.574999999999992
0
LWPOLYLINE
5
162
100
AcDbEntity
8
0
100
AcDbPolyline
90
8
70
1
43
0.0
10
-93.512500000000003
20
21.575000000000003
42
0.41421356237310802
10
-93.012499999999989
20
22.074999999999999
10
-93.012500000000017
20
35.075000000000003
42
0.41421356237311324
10
-93.512500000000003
20
35.574999999999989
10
-106.51250000000002
20
35.575000000000003
42
0.41421356237309243
10
-107.01250000000002
20
35.075000000000003
10
-107.01250000000002
20
22.074999999999999
42
0.41421356237309503
10
-106.51250000000002
20
21.574999999999992
0
LWPOLYLINE
5
163
100
AcDbEntity
8
0
100
AcDbPolyline
90
8
70
1
43
0.0
10
-150.66249999999999
20
21.575000000000003
42
0.41421356237310802
10
-150.16249999999999
20
22.074999999999999
10
-150.16249999999999
20
35.075000000000003
42
0.41421356237309243
10
-150.66249999999999
20
35.57500000000001
10
-163.66250000000002
20
35.575000000000003
42
0.41421356237312101
10
-164.16250000000002
20
35.075000000000003
10
-164.16250000000002
20
22.074999999999999
42
0.41421356237310281
10
-163.66250000000002
20
21.574999999999992
0
LWPOLYLINE
5
164
100
AcDbEntity
8
0
100
AcDbPolyline
90
8
70
1
43
0.0
10
-112.56250000000001
20
21.575000000000003
42
0.41421356237310802
10
-112.0625
20
22.074999999999999
10
-112.0625
20
35.075000000000003
42
0.41421356237309243
10
-112.56250000000001
20
35.57500000000001
10
-125.5625
20
35.575000000000003
42
0.41421356237307161
10
-126.06250000000001
20
35.075000000000003
10
-126.06250000000001
20
22.074999999999999
42
0.41421356237307422
10
-125.5625
20
21.574999999999992
0
LWPOLYLINE
5
165
100
AcDbEntity
8
0
100
AcDbPolyline
90
8
70
1
43
0.0
10
-131.61250000000001
20
21.575000000000003
42
0.41421356237310802
10
-131.11250000000001
20
22.074999999999999
10
-131.11250000000001
20
35.075000000000003
42
0.41421356237309243
10
-131.61250000000001
20
35.57500000000001
10
-144.61250000000001
20
35.575000000000003
42
0.41421356237307161
10
-145.11250000000001
20
35.075000000000003
10
-145.11250000000001
20
22.074999999999999
42
0.41421356237307422
10
-144.61250000000001
20
21.574999999999992
0
LWPOLYLINE
5
166
100
AcDbEntity
8
0
100
AcDbPolyline
90
8
70
1
43
0.0
10
-179.23750000000001
20
2.5249999999999999
42
0.41421356237307749
10
-178.73749999999998
20
3.0249999999999999
10
-178.73750000000001
20
16.024999999999999
42
0.41421356237313406
10
-179.23750000000001
20
16.525000000000006
10
-192.23750000000001
20
16.524999999999999
42
0.41421356237304563
10
-192.73750000000004
20
16.024999999999999
10
-192.73750000000004
20
3.0249999999999999
42
0.41421356237310153
10
-192.23750000000001
20
2.5249999999999928
0
LWPOLYLINE
5
167
100
AcDbEntity
8
0
100
AcDbPolyline
90
8
70
1
43
0.0
10
-160.1875
20
2.5249999999999999
42
0.41421356237309503
10
-159.6875
20
3.0249999999999999
10
-159.6875
20
16.024999999999999
42
0.41421356237309631
10
-160.1875
20
16.525000000000006
10
-173.1875
20
16.524999999999999
42
0.41421356237304563
10
-173.68750000000003
20
16.024999999999999
10
-173.68750000000003
20
3.0249999999999999
42
0.41421356237310153
10
-173.1875
20
2.5249999999999928
0
LWPOLYLINE
5
168
100
AcDbEntity
8
0
100
AcDbPolyline
90
8
70
1
43
0.0
10
-141.13749999999999
20
2.5249999999999999
42
0.41421356237310542
10
-140.63749999999996
20
3.0249999999999999
10
-140.63749999999999
20
16.024999999999999
42
0.41421356237309631
10
-141.13749999999999
20
16.525000000000006
10
-154.13749999999999
20
16.524999999999999
42
0.41421356237310414
10
-154.63750000000002
20
16.024999999999999
10
-154.63749999999999
20
3.0249999999999999
42
0.41421356237311519
10
-154.13749999999999
20
2.5250000000000106
0
LWPOLYLINE
5
169
100
AcDbEntity
8
0
100
AcDbPolyline
90
8
70
1
43
0.0
10
-122.08750000000002
20
2.5249999999999999
42
0.41421356237310542
10
-121.58749999999999
20
3.0249999999999999
10
-121.58750000000001
20
16.024999999999999
42
0.41421356237309631
10
-122.08750000000002
20
16.525000000000006
10
-135.08750000000001
20
16.524999999999999
42
0.41421356237308721
10
-135.58750000000001
20
16.024999999999999
10
-135.58750000000001
20
3.0249999999999999
42
0.41421356237307355
10
-135.08750000000001
20
2.5249999999999928
0
LWPOLYLINE
5
170
100
AcDbEntity
8
0
100
AcDbPolyline
90
8
70
1
43
0.0
10
-103.03750000000001
20
2.5249999999999999
42
0.41421356237310542
10
-102.53749999999998
20
3.0249999999999999
10
-102.53749999999999
20
16.024999999999999
42
0.41421356237309631
10
-103.03750000000001
20
16.525000000000006
10
-116.03749999999999
20
16.524999999999999
42
0.41421356237308721
10
-116.53749999999999
20
16.024999999999999
10
-116.53750000000001
20
3.0249999999999999
42
0.41421356237307355
10
-116.03749999999999
20
2.5249999999999928
0
LWPOLYLINE
5
171
100
AcDbEntity
8
0
100
AcDbPolyline
90
8
70
1
43
0.0
10
-83.987499999999997
20
2.5249999999999999
42
0.41421356237310542
10
-83.487499999999969
20
3.0249999999999999
10
-83.487500000000011
20
16.024999999999999
42
0.41421356237311452
10
-83.987499999999997
20
16.524999999999991
10
-96.987500000000011
20
16.524999999999999
42
0.41421356237310414
10
-97.487500000000011
20
16.024999999999999
10
-97.487500000000011
20
3.0249999999999999
42
0.41421356237309437
10
-96.987500000000011
20
2.5249999999999928
0
LWPOLYLINE
5
172
100
AcDbEntity
8
0
100
AcDbPolyline
90
8
70
1
43
0.0
10
-64.9375
20
2.5249999999999999
42
0.41421356237309664
10
-64.4375
20
3.0249999999999999
10
-64.4375
20
16.024999999999999
42
0.41421356237309764
10
-64.9375
20
16.524999999999999
10
-77.9375
20
16.524999999999999
42
0.41421356237309503
10
-78.4375
20
16.024999999999999
10
-78.4375
20
3.0249999999999999
42
0.41421356237309437
10
-77.9375
20
2.5250000000000017
0
LWPOLYLINE
5
173
100
AcDbEntity
8
0
100
AcDbPolyline
90
8
70
1
43
0.0
10
-45.887500000000003
20
2.5249999999999999
42
0.41421356237309404
10
-45.387500000000003
20
3.0249999999999999
10
-45.387500000000003
20
16.024999999999999
42
0.41421356237309503
10
-45.887500000000003
20
16.524999999999999
10
-58.88750000000001
20
16.524999999999999
42
0.41421356237309503
10
-59.387500000000003
20
16.024999999999999
10
-59.387500000000003
20
3.0249999999999999
42
0.41421356237309437
10
-58.88750000000001
20
2.5250000000000017
0
LWPOLYLINE
5
174
100
AcDbEntity
8
0
100
AcDbPolyline
90
8
70
1
43
0.0
10
-22.074999999999999
20
2.5249999999999999
42
0.41421356237309537
10
-21.575000000000003
20
3.0249999999999999
10
-21.575000000000003
20
16.024999999999999
42
0.41421356237309631
10
-22.074999999999999
20
16.524999999999999
10
-35.075000000000003
20
16.524999999999999
42
0.41421356237309631
10
-35.575000000000003
20
16.024999999999999
10
-35.575000000000003
20
3.0249999999999999
42
0.41421356237309631
10
-35.075000000000003
20
2.5249999999999972
0
LWPOLYLINE
5
175
100
AcDbEntity
8
0
100
AcDbPolyline
90
8
70
1
43
0.0
10
-3.0249999999999999
20
2.5249999999999999
42
0.41421356237309437
10
-2.5249999999999999
20
3.0249999999999999
10
-2.5249999999999999
20
16.024999999999999
42
0.4142135623730947
10
-3.0249999999999999
20
16.525000000000002
10
-16.024999999999999
20
16.524999999999999
42
0.41421356237309764
10
-16.524999999999999
20
16.024999999999999
10
-16.524999999999999
20
3.0249999999999999
42
0.4142135623730957
10
-16.024999999999999
20
2.5250000000000017
0
LWPOLYLINE
5
176
100
AcDbEntity
8
0
100
AcDbPolyline
90
8
70
1
43
0.0
10
-374.5
20
21.575000000000003
42
0.41421356237311063
10
-374.00000000000006
20
22.074999999999999
10
-374
20
35.075000000000003
42
0.41421356237303258
10
-374.5
20
35.575000000000045
10
-387.5
20
35.575000000000003
42
0.41421356237310802
10
-388
20
35.075000000000003
10
-388.00000000000006
20
22.074999999999999
42
0.41421356237302998
10
-387.5
20
21.574999999999957
0
LWPOLYLINE
5
177
100
AcDbEntity
8
0
100
AcDbPolyline
90
8
70
1
43
0.0
10
-136.375
20
40.625
42
0.41421356237310025
10
-135.87500000000003
20
41.125
10
-135.875
20
54.125000000000007
42
0.41421356237307422
10
-136.375
20
54.625000000000014
10
-149.375
20
54.625
42
0.41421356237308982
10
-149.875
20
54.125000000000007
10
-149.875
20
41.125
42
0.41421356237309503
10
-149.375
20
40.624999999999993
0
LWPOLYLINE
5
178
100
AcDbEntity
8
0
100
AcDbPolyline
90
8
70
1
43
0.0
10
-3.0249999999999999
20
40.625
42
0.41421356237309437
10
-2.525000000000003
20
41.125
10
-2.5249999999999999
20
54.125000000000007
42
0.41421356237309404
10
-3.0249999999999999
20
54.625
10
-16.024999999999999
20
54.625
42
0.41421356237309503
10
-16.524999999999999
20
54.125000000000007
10
-16.524999999999999
20
41.125
42
0.41421356237309503
10
-16.024999999999999
20
40.625
0
LWPOLYLINE
5
179
100
AcDbEntity
8
0
100
AcDbPolyline
90
8
70
1
43
0.0
10
-117.32500000000002
20
40.625
42
0.41421356237308982
10
-116.82500000000002
20
41.125
10
-116.82500000000002
20
54.125000000000007
42
0.41421356237309503
10
-117.32500000000002
20
54.625000000000014
10
-130.32499999999999
20
54.625
42
0.41421356237308982
10
-130.82499999999999
20
54.125000000000007
10
-130.82499999999999
20
41.125
42
0.41421356237309503
10
-130.32499999999999
20
40.624999999999993
0
LWPOLYLINE
5
180
100
AcDbEntity
8
0
100
AcDbPolyline
90
8
70
1
43
0.0
10
-22.074999999999999
20
40.625
42
0.41421356237309503
10
-21.575000000000003
20
41.125
10
-21.575000000000003
20
54.125000000000007
42
0.41421356237309503
10
-22.074999999999999
20
54.625
10
-35.075000000000003
20
54.625
42
0.41421356237309503
10
-35.575000000000003
20
54.125000000000007
10
-35.575000000000003
20
41.125
42
0.41421356237308721
10
-35.075000000000003
20
40.625
0
LWPOLYLINE
5
181
100
AcDbEntity
8
0
100
AcDbPolyline
90
8
70
1
43
0.0
10
-98.275000000000006
20
40.625
42
0.41421356237308982
10
-97.775000000000006
20
41.125
10
-97.77500000000002
20
54.125000000000007
42
0.41421356237311585
10
-98.275000000000006
20
54.624999999999993
10
-111.27500000000001
20
54.625
42
0.41421356237308982
10
-111.77500000000002
20
54.125000000000007
10
-111.77500000000002
20
41.125
42
0.41421356237309503
10
-111.27500000000001
20
40.624999999999993
0
LWPOLYLINE
5
182
100
AcDbEntity
8
0
100
AcDbPolyline
90
8
70
1
43
0.0
10
-66.03125
20
54.625
10
-48.268750000000004
20
54.625000000000014
42
-0.41421356237310542
10
-47.768749999999997
20
54.125000000000007
10
-47.768750000000004
20
41.125
42
-0.41421356237309503
10
-48.268750000000004
20
40.625
10
-66.03125
20
40.625
42
-0.41421356237309503
10
-66.53125
20
41.125
10
-66.53125
20
54.125000000000007
42
-0.41421356237309503
0
LWPOLYLINE
5
183
100
AcDbEntity
8
0
100
AcDbPolyline
90
8
70
1
43
0.0
10
-79.224999999999994
20
40.625
42
0.41421356237309503
10
-78.724999999999994
20
41.125
10
-78.724999999999994
20
54.125000000000007
42
0.41421356237309503
10
-79.224999999999994
20
54.625
10
-92.224999999999994
20
54.625
42
0.41421356237308982
10
-92.725000000000009
20
54.125000000000007
10
-92.724999999999994
20
41.125
42
0.41421356237311585
10
-92.224999999999994
20
40.625000000000007
0
LWPOLYLINE
5
184
100
AcDbEntity
8
0
100
AcDbPolyline
90
8
70
1
43
0.0
10
-207.8125
20
21.575000000000003
42
0.41421356237305079
10
-207.3125
20
22.074999999999999
10
-207.31250000000003
20
35.075000000000003
42
0.41421356237309764
10
-207.8125
20
35.574999999999974
10
-220.8125
20
35.575000000000003
42
0.41421356237313145
10
-221.3125
20
35.075000000000003
10
-221.3125
20
22.074999999999999
42
0.41421356237313406
10
-220.8125
20
21.574999999999992
0
LWPOLYLINE
5
185
100
AcDbEntity
8
0
100
AcDbPolyline
90
8
70
1
43
0.0
10
-226.86250000000001
20
21.575000000000003
42
0.41421356237305079
10
-226.36250000000001
20
22.074999999999999
10
-226.36250000000004
20
35.075000000000003
42
0.41421356237309764
10
-226.86250000000001
20
35.574999999999974
10
-239.86250000000001
20
35.575000000000003
42
0.41421356237313145
10
-240.36250000000001
20
35.075000000000003
10
-240.36250000000001
20
22.074999999999999
42
0.41421356237313406
10
-239.86250000000001
20
21.574999999999992
0
LWPOLYLINE
5
186
100
AcDbEntity
8
0
100
AcDbPolyline
90
8
70
1
43
0.0
10
-245.91250000000002
20
21.575000000000003
42
0.41421356237305079
10
-245.41250000000002
20
22.074999999999999
10
-245.41250000000002
20
35.075000000000003
42
0.41421356237310025
10
-245.91250000000002
20
35.57500000000001
10
-258.91250000000002
20
35.575000000000003
42
0.41421356237313145
10
-259.41250000000002
20
35.075000000000003
10
-259.41250000000002
20
22.074999999999999
42
0.41421356237313406
10
-258.91250000000002
20
21.574999999999992
0
LWPOLYLINE
5
187
100
AcDbEntity
8
0
100
AcDbPolyline
90
8
70
1
43
0.0
10
-264.96249999999998
20
21.575000000000003
42
0.41421356237308204
10
-264.46249999999998
20
22.074999999999999
10
-264.46249999999998
20
35.075000000000003
42
0.41421356237313145
10
-264.96249999999998
20
35.57500000000001
10
-277.96249999999998
20
35.575000000000003
42
0.41421356237312101
10
-278.46250000000003
20
35.075000000000003
10
-278.46249999999998
20
22.074999999999999
42
0.41421356237309764
10
-277.96249999999998
20
21.575000000000028
0
LWPOLYLINE
5
188
100
AcDbEntity
8
0
100
AcDbPolyline
90
8
70
1
43
0.0
10
-284.01249999999999
20
21.575000000000003
42
0.41421356237308204
10
-283.51249999999999
20
22.074999999999999
10
-283.51249999999999
20
35.075000000000003
42
0.41421356237313145
10
-284.01249999999999
20
35.57500000000001
10
-297.01250000000005
20
35.575000000000003
42
0.41421356237312101
10
-297.51250000000005
20
35.075000000000003
10
-297.51249999999999
20
22.074999999999999
42
0.41421356237309764
10
-297.01250000000005
20
21.575000000000028
0
LWPOLYLINE
5
189
100
AcDbEntity
8
0
100
AcDbPolyline
90
8
70
1
43
0.0
10
-307.82499999999999
20
21.575000000000003
42
0.41421356237305079
10
-307.32499999999999
20
22.074999999999999
10
-307.32500000000005
20
35.075000000000003
42
0.41421356237309764
10
-307.82499999999999
20
35.574999999999974
10
-320.82500000000005
20
35.575000000000003
42
0.41421356237319129
10
-321.32499999999999
20
35.075000000000003
10
-321.32499999999999
20
22.074999999999999
42
0.4142135623730222
10
-320.82500000000005
20
21.575000000000028
0
LWPOLYLINE
5
190
100
AcDbEntity
8
0
100
AcDbPolyline
90
8
70
1
43
0.0
10
-336.39999999999998
20
21.575000000000003
42
0.41421356237311063
10
-335.90000000000003
20
22.074999999999999
10
-335.89999999999998
20
35.075000000000003
42
0.41421356237303258
10
-336.39999999999998
20
35.575000000000045
10
-349.39999999999998
20
35.575000000000003
42
0.41421356237310802
10
-349.89999999999998
20
35.075000000000003
10
-349.90000000000003
20
22.074999999999999
42
0.41421356237302998
10
-349.39999999999998
20
21.574999999999957
0
LWPOLYLINE
5
191
100
AcDbEntity
8
0
100
AcDbPolyline
90
8
70
1
43
0.0
10
-355.45000000000005
20
21.575000000000003
42
0.41421356237311063
10
-354.95000000000005
20
22.074999999999999
10
-354.94999999999999
20
35.075000000000003
42
0.41421356237303258
10
-355.45000000000005
20
35.575000000000045
10
-368.44999999999999
20
35.575000000000003
42
0.41421356237310802
10
-368.94999999999993
20
35.075000000000003
10
-368.95000000000005
20
22.074999999999999
42
0.41421356237302998
10
-368.44999999999999
20
21.574999999999957
0
CIRCLE
5
192
100
AcDbEntity
8
0
100
AcDbCircle
10
-330.69349999999991
20
57.149999999999999
30
0
40
0.74999999999995737
210
0
220
-0
230
1
0
CIRCLE
5
193
100
AcDbEntity
8
0
100
AcDbCircle
10
-330.69349999999991
20
38.100000000000009
30
0
40
0.75000000000002842
210
0
220
-0
230
1
0
CIRCLE
5
194
100
AcDbEntity
8
0
100
AcDbCircle
10
-40.481250000000003
20
57.149999999999999
30
0
40
0.75000000000000178
210
0
220
-0
230
1
0
LWPOLYLINE
5
195
100
AcDbEntity
8
0
100
AcDbPolyline
90
8
70
1
43
0.0
10
-40.881000000000007
20
34.575000000000003
42
0.41421356237309503
10
-41.381000000000007
20
34.075000000000003
10
-41.381000000000007
20
4.0249999999999986
42
0.4142135623730947
10
-40.881000000000007
20
3.5250000000000039
10
-40.081500000000005
20
3.5249999999999986
42
0.41421356237309503
10
-39.581500000000013
20
4.0249999999999986
10
-39.581500000000005
20
34.075000000000003
42
0.41421356237309503
10
-40.081500000000005
20
34.575000000000003
0
LWPOLYLINE
5
196
100
AcDbEntity
8
0
100
AcDbPolyline
90
8
70
1
43
0.0
10
-39.581500000000013
20
53.125000000000007
10
-39.581500000000005
20
42.124999999999993
42
-0.41421356237309503
10
-40.081500000000005
20
41.625
10
-40.881000000000007
20
41.625
42
-0.41421356237309503
10
-41.381000000000007
20
42.124999999999993
10
-41.381000000000007
20
53.125000000000007
42
-0.41421356237309503
10
-40.881000000000007
20
53.625000000000007
10
-40.081500000000005
20
53.625000000000007
42
-0.41421356237309503
0
LWPOLYLINE
5
197
100
AcDbEntity
8
0
100
AcDbPolyline
90
8
70
1
43
0.0
10
-40.881000000000007
20
91.724999999999994
42
0.41421356237309503
10
-41.381000000000007
20
91.224999999999994
10
-41.381000000000007
20
61.174999999999997
42
0.41421356237309503
10
-40.881000000000007
20
60.674999999999997
10
-40.081500000000005
20
60.674999999999997
42
0.41421356237309503
10
-39.581500000000013
20
61.174999999999997
10
-39.581500000000005
20
91.224999999999994
42
0.41421356237309503
10
-40.081500000000005
20
91.724999999999994
0
LWPOLYLINE
5
198
100
AcDbEntity
8
0
100
AcDbPolyline
90
8
70
1
43
0.0
10
-330.29349999999994
20
60.674999999999997
42
0.41421356237309503
10
-329.79349999999999
20
61.174999999999997
10
-329.79349999999982
20
91.224999999999994
42
0.41421356237309503
10
-330.29349999999977
20
91.724999999999994
10
-331.09349999999995
20
91.724999999999994
42
0.41421356237309503
10
-331.59349999999995
20
91.224999999999994
10
-331.59350000000006
20
61.174999999999997
42
0.41421356237309503
10
-331.09350000000006
20
60.674999999999997
0
LWPOLYLINE
5
199
100
AcDbEntity
8
0
100
AcDbPolyline
90
8
70
1
43
0.0
10
-330.29349999999994
20
41.625
42
0.41421356237309503
10
-329.79349999999999
20
42.124999999999993
10
-329.79349999999982
20
53.125000000000007
42
0.41421356237309503
10
-330.29349999999977
20
53.625000000000007
10
-331.09349999999995
20
53.625000000000007
42
0.41421356237309503
10
-331.59349999999995
20
53.125000000000007
10
-331.59350000000006
20
42.124999999999993
42
0.41421356237309503
10
-331.09350000000006
20
41.625
0
LWPOLYLINE
5
200
100
AcDbEntity
8
0
100
AcDbPolyline
90
8
70
1
43
0.0
10
-330.29349999999994
20
3.5249999999999986
42
0.41421356237309503
10
-329.79349999999999
20
4.0249999999999986
10
-329.79349999999982
20
34.075000000000003
42
0.41421356237309503
10
-330.29349999999977
20
34.575000000000003
10
-331.09349999999995
20
34.575000000000003
42
0.41421356237309503
10
-331.59349999999995
20
34.075000000000003
10
-331.59350000000006
20
4.0249999999999986
42
0.4142135623730947
10
-331.09350000000006
20
3.5250000000000039
0
LWPOLYLINE
5
201
100
AcDbEntity
8
0
100
AcDbPolyline
90
129
70
1
43
0.0
10
-3.3000000000000007
20
6.6613381477509392e-15
42
0.41421356237309515
10
-0.30000000000000027
20
3.0000000000000071
10
-0.30000000000001137
20
92.25
42
0.41421356237309193
10
-3.3000000000000194
20
95.249999999999986
10
-29.500000149011605
20
95.249999999999986
42
-0.99999999999999989
10
-29.500000149011623
20
96.25
10
-13.300000149011613
20
96.25
42
0.41421356237309764
10
-12.300000149011607
20
97.250000000000014
10
-12.300000149011616
20
98.250000000000028
42
0.41421356237309698
10
-13.300000149011613
20
99.250000000000028
10
-56.700000149011622
20
99.25
42
0.41421356237309764
10
-57.700000149011629
20
98.25
10
-57.700000149011608
20
97.249999999999972
42
0.41421356237309764
10
-56.700000149011622
20
96.25
10
-40.500000149011619
20
96.250000000000028
42
-0.99999999999999989
10
-40.500000149011619
20
95.250000000000028
10
-109.63125014901161
20
95.249999999999986
42
-0.99999999999999989
10
-109.63125014901161
20
96.25
10
-93.431250149011618
20
96.25
42
0.41421356237310542
10
-92.431250149011618
20
97.250000000000014
10
-92.431250149011646
20
98.250000000000028
42
0.41421356237310542
10
-93.431250149011618
20
99.250000000000028
10
-136.83125014901162
20
99.25
42
0.41421356237309503
10
-137.83125014901162
20
98.25
10
-137.83125014901162
20
97.249999999999972
42
0.41421356237309503
10
-136.83125014901162
20
96.249999999999986
10
-120.63125014901162
20
96.250000000000028
42
-0.99999999999999989
10
-120.63125014901162
20
95.250000000000028
10
-189.67524725270252
20
95.249999999999986
42
-0.99999999999999989
10
-189.67524725270252
20
96.25
10
-173.56224725270255
20
96.25
42
0.41421356237307422
10
-172.56224725270258
20
97.250000000000014
10
-172.56224725270255
20
98.250000000000028
42
0.41421356237307422
10
-173.56224725270255
20
99.250000000000043
10
-216.96224725270253
20
99.25
42
0.41421356237307422
10
-217.9622472527025
20
98.25
10
-217.96224725270253
20
97.249999999999972
42
0.41421356237307422
10
-216.96224725270253
20
96.249999999999972
10
-200.67524725270255
20
96.250000000000028
42
-0.99999999999999989
10
-200.67524725270255
20
95.250000000000028
10
-269.89375000000001
20
95.249999999999986
42
-0.99999999999999989
10
-269.89375000000001
20
96.25
10
-253.69375000000002
20
96.25
42
0.41421356237307422
10
-252.69375000000002
20
97.250000000000014
10
-252.69374999999999
20
98.250000000000028
42
0.41421356237307422
10
-253.69375000000002
20
99.250000000000043
10
-297.09375
20
99.25
42
0.41421356237307422
10
-298.09374999999994
20
98.25
10
-298.09375
20
97.249999999999972
42
0.41421356237307422
10
-297.09375
20
96.249999999999972
10
-280.89375000000001
20
96.250000000000028
42
-0.99999999999999989
10
-280.89375000000001
20
95.250000000000028
10
-350.02500000000003
20
95.249999999999986
42
-0.99999999999999989
10
-350.02500000000003
20
96.25
10
-333.82500000000005
20
96.25
42
0.4142135623730222
10
-332.82500000000016
20
97.250000000000014
10
-332.82500000000005
20
98.250000000000028
42
0.4142135623730222
10
-333.82500000000005
20
99.250000000000085
10
-377.22499999999997
20
99.25
42
0.4142135623730222
10
-378.22499999999991
20
98.25
10
-378.22499999999997
20
97.249999999999972
42
0.4142135623730222
10
-377.22499999999997
20
96.249999999999929
10
-361.02499999999998
20
96.250000000000028
42
-0.99999999999999989
10
-361.02499999999998
20
95.250000000000028
10
-387.22500000000002
20
95.25
42
0.41421356237311413
10
-390.22500000000002
20
92.25
10
-390.22500000000002
20
3.0000000000000071
42
0.4142135623731143
10
-387.22500000000002
20
-1.9428902930940239e-14
10
-361.02499999999998
20
0
42
-0.99999999999999989
10
-361.02499999999998
20
-1
10
-377.22499999999997
20
-0.99999999999999645
42
0.41421356237302537
10
-378.22499999999991
20
-2.0000000000000022
10
-378.22499999999997
20
-3.0000000596046439
42
0.41421356237302531
10
-377.22499999999997
20
-4.0000000596047043
10
-333.82500000000005
20
-4.0000000596046448
42
0.41421356237302531
10
-332.82500000000016
20
-3.0000000596046439
10
-332.82500000000005
20
-2.0000000000000018
42
0.41421356237302542
10
-333.82500000000005
20
-0.99999999999994094
10
-350.02500000000003
20
-1
42
-0.99999999999999989
10
-350.02500000000003
20
-6.9388939039072284e-17
10
-280.89375000000001
20
0
42
-0.99999999999999989
10
-280.89375000000001
20
-1
10
-297.09375
20
-0.99999999999999645
42
0.41421356237307444
10
-298.09375
20
-2.0000000000000022
10
-298.09375
20
-3.0000000596046439
42
0.41421356237307422
10
-297.09375
20
-4.0000000596046581
10
-253.69375000000002
20
-4.0000000596046448
42
0.41421356237307422
10
-252.69374999999999
20
-3.0000000596046439
10
-252.69374999999999
20
-2.0000000000000018
42
0.41421356237307444
10
-253.69375000000002
20
-0.99999999999998701
10
-269.89375000000001
20
-1
42
-0.99999999999999989
10
-269.89375000000001
20
-6.9388939039072284e-17
10
-200.76249999999999
20
0
42
-0.99999999999999989
10
-200.76249999999999
20
-1
10
-216.96249999999995
20
-0.99999999999999645
42
0.41421356237307444
10
-217.96249999999998
20
-2.0000000000000022
10
-217.96249999999998
20
-3.0000000596046439
42
0.41421356237307422
10
-216.96249999999995
20
-4.0000000596046581
10
-173.5625
20
-4.0000000596046448
42
0.41421356237307422
10
-172.56249999999997
20
-3.0000000596046439
10
-172.56249999999997
20
-2.0000000000000018
42
0.41421356237307444
10
-173.5625
20
-0.99999999999998701
10
-189.76249999999996
20
-1
42
-0.99999999999999989
10
-189.76249999999996
20
-6.9388939039072284e-17
10
-120.63124999999999
20
0
42
-0.99999999999999989
10
-120.63124999999999
20
-1
10
-136.83125000000001
20
-0.99999999999999645
42
0.41421356237309453
10
-137.83125000000001
20
-2.0000000000000022
10
-137.83125000000001
20
-2.9999999105930319
42
0.41421356237309459
10
-136.83125000000001
20
-3.9999999105930266
10
-93.431249999999977
20
-3.9999999105930328
42
0.4142135623730972
10
-92.431249999999977
20
-2.9999999105930319
10
-92.431249999999949
20
-2.0000000000000018
42
0.41421356237309698
10
-93.431249999999977
20
-0.99999999999999867
10
-109.63124999999998
20
-1
42
-0.99999999999999989
10
-109.63124999999998
20
-6.9388939039072284e-17
10
-40.5
20
-1.8041124150158794e-15
42
-0.41421356237309404
10
-40
20
-0.49999999999999828
42
-0.41421357110199419
10
-40.5
20
-1.0000000149011612
10
-56.70000000000001
20
-1.0000000149011612
42
0.41421356237309587
10
-57.700000000000003
20
-2.0000000149011625
10
-57.699999999999996
20
-2.9999999105930319
42
0.4142135623730957
10
-56.70000000000001
20
-3.9999999105930306
10
-13.300000000000001
20
-3.9999999105930328
42
0.41421356237309653
10
-12.299999999999995
20
-2.9999999105930319
10
-12.300000000000004
20
-1.9999999999999973
42
0.41421356237309498
10
-13.300000000000001
20
-0.99999999999999889
10
-29.500000447034836
20
-1
42
-0.99999999999999989
10
-29.500000447034836
20
6.9388939039072284e-17
0
ENDSEC
0
SECTION
2
OBJECTS
0
DICTIONARY
5
C
100
AcDbDictionary
3
ACAD_GROUP
350
D
3
ACAD_MLINESTYLE
350
17
0
DICTIONARY
5
D
100
AcDbDictionary
0
DICTIONARY
5
1A
330
C
100
AcDbDictionary
0
DICTIONARY
5
17
100
AcDbDictionary
0
ENDSEC
0
EOF
