0
SECTION
2
HEADER
9
$INSUNITS
70
4
9
$ACADVER
1
AC1014
9
$HANDSEED
5
FFFF
0
ENDSEC
0
SECTION
2
TABLES
0
TABLE
2
VPORT
5
8
100
AcDbSymbolTable
0
ENDTAB
0
TABLE
2
LTYPE
5
5
100
AcDbSymbolTable
0
LTYPE
5
14
100
AcDbSymbolTableRecord
100
AcDbLinetypeTableRecord
2
BYBLOCK
70
0
0
LTYPE
5
15
100
AcDbSymbolTableRecord
100
AcDbLinetypeTableRecord
2
BYLAYER
70
0
0
ENDTAB
0
TABLE
2
LAYER
5
2
100
AcDbSymbolTable
70
2
0
LAYER
5
50
100
AcDbSymbolTableRecord
100
AcDbLayerTableRecord
2
0
70
0
6
CONTINUOUS
0
ENDTAB
0
TABLE
2
STYLE
5
3
100
AcDbSymbolTable
70
1
0
STYLE
5
11
100
AcDbSymbolTableRecord
100
AcDbTextStyleTableRecord
2
STANDARD
70
0
0
ENDTAB
0
TABLE
2
VIEW
5
6
100
AcDbSymbolTable
70
0
0
ENDTAB
0
TABLE
2
UCS
5
7
100
AcDbSymbolTable
70
0
0
ENDTAB
0
TABLE
2
APPID
5
9
100
AcDbSymbolTable
70
2
0
APPID
5
12
100
AcDbSymbolTableRecord
100
AcDbRegAppTableRecord
2
ACAD
70
0
0
ENDTAB
0
TABLE
2
DIMSTYLE
5
A
100
AcDbSymbolTable
70
1
0
ENDTAB
0
TABLE
2
BLOCK_RECORD
5
1
100
AcDbSymbolTable
70
1
0
BLOCK_RECORD
5
1F
100
AcDbSymbolTableRecord
100
AcDbBlockTableRecord
2
*MODEL_SPACE
0
BLOCK_RECORD
5
1B
100
AcDbSymbolTableRecord
100
AcDbBlockTableRecord
2
*PAPER_SPACE
0
ENDTAB
0
ENDSEC
0
SECTION
2
BLOCKS
0
BLOCK
5
20
100
AcDbEntity
100
AcDbBlockBegin
2
*MODEL_SPACE
0
ENDBLK
5
21
100
AcDbEntity
100
AcDbBlockEnd
0
BLOCK
5
1C
100
AcDbEntity
100
AcDbBlockBegin
2
*PAPER_SPACE
0
ENDBLK
5
1D
100
AcDbEntity
100
AcDbBlockEnd
0
ENDSEC
0
SECTION
2
ENTITIES
0
LWPOLYLINE
5
100
100
AcDbEntity
8
0
100
AcDbPolyline
90
153
70
1
43
0.0
10
57.300250149011625
20
99.250000000000028
42
0.41421356237309764
10
56.300250149011617
20
98.250000000000028
10
56.30025014901161
20
97.250000000000014
42
0.41421356237309764
10
57.300250149011617
20
96.250000000000028
10
72.50025014901162
20
96.250000000000014
42
-0.99999999999999989
10
72.50025014901162
20
95.25
10
44.862500000000018
20
95.25
42
0.41421356237309764
10
43.862500000000011
20
94.25
10
43.862500000000004
20
93.250000000000014
10
37.100000000000001
20
93.250000000000014
10
37.100000000000009
20
94.25
42
0.41421356237309631
10
36.099999999999994
20
95.25
10
25.550000000000001
20
95.249999999999986
42
-0.99999999999999989
10
25.550000000000001
20
96.25
10
30.050000000000004
20
96.25
42
0.41421356237309631
10
31.050000000000004
20
97.250000000000014
10
31.050000000000004
20
98.250000000000028
42
0.41421356237309631
10
30.050000000000004
20
99.250000000000028
10
8.0500000000000007
20
99.25
42
0.41421356237309598
10
7.0500000000000016
20
98.25
10
7.0500000000000185
20
97.249999999999972
42
0.41421356237309698
10
8.0500000000000007
20
96.249999999999986
10
12.54999999999999
20
96.250000000000028
42
-0.99999999999999989
10
12.54999999999999
20
95.250000000000028
10
1.0000000000000142
20
95.25
42
0.41421356237309681
10
1.1934897514720433e-14
20
94.25
10
0
20
0.99999999999999645
42
0.41421356237309498
10
1.0000000000000002
20
-3.7470027081099033e-15
10
12.549999999999999
20
0
42
-0.99999999999999989
10
12.549999999999999
20
-1
10
8.0500000000000078
20
-0.99999999999999978
42
0.41421356237309592
10
7.0500000000000096
20
-2.0000000000000022
10
7.0500000000000185
20
-3.0000000000000027
42
0.41421356237309537
10
8.0500000000000149
20
-4
10
30.050000000000008
20
-3.9999999105930364
42
0.41421356237309176
10
31.050000000000008
20
-3.0000000000000027
10
31.050000000000004
20
-2.0000000149011621
42
0.41421356237309254
10
30.050000000000004
20
-1.000000014901161
10
25.549999999999997
20
-1.0000000149011599
42
-0.41421357110199325
10
25.049999999999997
20
-0.49999999999999994
42
-0.41421356237309503
10
25.549999999999997
20
6.9388939039072284e-17
10
36.100000000000001
20
0
42
0.41421356237309254
10
37.100000000000001
20
1.0000000000000013
10
37.100000000000001
20
2
10
43.862500000000004
20
2
10
43.862500000000004
20
1.0000000000000009
42
0.41421356237309559
10
44.862499999999997
20
2.4980018054066022e-15
10
72.500249999999994
20
-1.3877787807814457e-16
42
-0.99999999999999989
10
72.500249999999994
20
-1
10
57.300249999999963
20
-0.99999999999999645
42
0.41421356237309925
10
56.30024999999997
20
-2.0000000000000022
10
56.300249999999963
20
-2.9999999105930319
42
0.4142135623730957
10
57.30024999999997
20
-3.9999999105930306
10
100.70025000000001
20
-3.9999999105930328
42
0.4142135623730972
10
101.70025000000001
20
-2.9999999105930319
10
101.70025000000003
20
-2.0000000000000018
42
0.41421356237309698
10
100.70025000000004
20
-0.99999999999999867
10
85.500249999999994
20
-1
42
-0.99999999999999989
10
85.500249999999994
20
0
10
179.69699999999995
20
-1.3877787807814457e-16
42
-0.99999999999999989
10
179.69699999999995
20
-1
10
164.49700000000001
20
-0.99999999999999645
42
0.41421356237310564
10
163.49699999999996
20
-2.0000000000000022
10
163.49699999999999
20
-3.0000000596046439
42
0.41421356237310542
10
164.49700000000001
20
-4.0000000596046226
10
207.89699999999996
20
-4.0000000596046448
42
0.41421356237310542
10
208.89700000000002
20
-3.0000000596046439
10
208.89699999999999
20
-2.0000000000000018
42
0.41421356237310564
10
207.89699999999996
20
-1.0000000000000226
10
192.697
20
-1
42
-0.99999999999999989
10
192.697
20
0
10
286.89374999999995
20
-1.3877787807814457e-16
42
-0.99999999999999989
10
286.89374999999995
20
-1
10
271.69375000000002
20
-0.99999999999999645
42
0.41421356237310564
10
270.69374999999997
20
-2.0000000000000022
10
270.69375000000002
20
-3.0000000596046439
42
0.41421356237310542
10
271.69375000000002
20
-4.0000000596046226
10
315.09375
20
-4.0000000596046448
42
0.41421356237310542
10
316.09375000000006
20
-3.0000000596046439
10
316.09375
20
-2.0000000000000018
42
0.41421356237310564
10
315.09375
20
-1.0000000000000226
10
299.89375000000001
20
-1
42
-0.99999999999999989
10
299.89375000000001
20
0
10
327.53199999999998
20
0
42
0.41421356237307733
10
328.5320000000001
20
1.0000000000000011
10
328.53200000000004
20
2
10
333.37500000000006
20
2
10
333.37500000000006
20
1.0000000000000009
42
0.41421356237307727
10
334.37500000000006
20
4.7462034302725442e-14
10
353.44999999999999
20
0
42
-0.99999999999999989
10
353.44999999999999
20
-1
10
341.42500000000007
20
-1
42
0.41421356237307733
10
340.42499999999995
20
-2.0000000000000022
10
340.42500000000007
20
-3.0000000000000027
42
0.41421356237307683
10
341.42500000000007
20
-3.9999999999999547
10
382.47499999999997
20
-4
42
0.41421356237307683
10
383.47500000000002
20
-3.0000000000000027
10
383.47499999999997
20
-2.0000000000000018
42
0.41421356237307727
10
382.47499999999997
20
-1.0000000000000484
10
370.45000000000005
20
-1
42
-0.99999999999999989
10
370.45000000000005
20
-6.9388939039072284e-17
10
389.52499999999998
20
0
42
0.41421356237304563
10
390.52500000000003
20
0.99999999999999667
10
390.52500000000003
20
94.25
42
0.4142135623730222
10
389.52499999999998
20
95.250000000000057
10
370.45000000000005
20
95.249999999999986
42
-0.99999999999999989
10
370.45000000000005
20
96.25
10
382.47499999999997
20
96.25
42
0.41421356237307422
10
383.47500000000002
20
97.250000000000014
10
383.47499999999997
20
98.250000000000028
42
0.41421356237307422
10
382.47499999999997
20
99.249999999999972
10
341.42500000000007
20
99.25
42
0.41421356237307422
10
340.42499999999995
20
98.25
10
340.42500000000007
20
97.249999999999972
42
0.41421356237307422
10
341.42500000000007
20
96.250000000000028
10
353.44999999999999
20
96.250000000000028
42
-0.99999999999999989
10
353.44999999999999
20
95.250000000000028
10
334.37500000000006
20
95.25
42
0.41421356237307422
10
333.375
20
94.25
10
333.37500000000006
20
93.250000000000014
10
328.53200000000004
20
93.250000000000014
10
328.53200000000004
20
94.25
42
0.41421356237307422
10
327.53199999999998
20
95.249999999999943
10
299.89375000000001
20
95.249999999999986
42
-0.99999999999999989
10
299.89375000000001
20
96.25
10
315.09375
20
96.25
42
0.41421356237310542
10
316.09375
20
97.249999999999972
10
316.09375
20
98.25
42
0.41421356237310542
10
315.09375
20
99.249999999999972
10
271.69375000000002
20
99.25
42
0.41421356237308982
10
270.69375000000002
20
98.250000000000014
10
270.69375000000002
20
97.25
42
0.41421356237308982
10
271.69375000000002
20
96.25
10
286.89374999999995
20
96.250000000000014
42
-0.99999999999999989
10
286.89374999999995
20
95.25
10
192.60974725270256
20
95.249999999999986
42
-0.99999999999999989
10
192.60974725270256
20
96.25
10
207.80974725270252
20
96.25
42
0.41421356237307422
10
208.80974725270249
20
97.249999999999972
10
208.80974725270252
20
98.25
42
0.41421356237307422
10
207.80974725270252
20
99.25
10
164.40974725270252
20
99.25
42
0.41421356237308982
10
163.40974725270252
20
98.250000000000014
10
163.40974725270254
20
97.25
42
0.41421356237305862
10
164.40974725270252
20
96.25
10
179.6097472527025
20
96.250000000000014
42
-0.99999999999999989
10
179.6097472527025
20
95.25
10
85.500250149011634
20
95.249999999999986
42
-0.99999999999999989
10
85.500250149011634
20
96.25
10
100.70025014901162
20
96.25
42
0.41421356237309503
10
101.70025014901162
20
97.25
10
101.70025014901164
20
98.250000000000014
42
0.41421356237309503
10
100.70025014901165
20
99.25
0
LWPOLYLINE
5
101
100
AcDbEntity
8
0
100
AcDbPolyline
90
4
70
1
43
0.0
10
328.53200000000004
20
37.700000000000003
10
333.37500000000006
20
37.700000000000003
10
333.37500000000006
20
2.7000000000000002
10
328.53200000000004
20
2.7000000000000002
0
LWPOLYLINE
5
102
100
AcDbEntity
8
0
100
AcDbPolyline
90
4
70
1
43
0.0
10
37.100000000000001
20
37.700000000000003
10
43.862500000000004
20
37.700000000000003
10
43.862500000000004
20
2.7000000000000002
10
37.100000000000001
20
2.7000000000000002
0
LWPOLYLINE
5
103
100
AcDbEntity
8
0
100
AcDbPolyline
90
4
70
1
43
0.0
10
43.862500000000004
20
57.749999999999993
10
37.100000000000001
20
57.749999999999993
10
37.100000000000001
20
92.550000000000011
10
43.862500000000004
20
92.550000000000011
0
LWPOLYLINE
5
104
100
AcDbEntity
8
0
100
AcDbPolyline
90
4
70
1
43
0.0
10
333.37500000000006
20
57.749999999999993
10
328.53200000000004
20
57.749999999999993
10
328.53200000000004
20
92.550000000000011
10
333.37500000000006
20
92.550000000000011
0
LWPOLYLINE
5
105
100
AcDbEntity
8
0
100
AcDbPolyline
90
8
70
1
43
0.0
10
336.39999999999992
20
73.674999999999997
10
349.40000000000003
20
73.674999999999969
42
-0.41421356237309503
10
349.90000000000003
20
73.174999999999997
10
349.90000000000003
20
60.174999999999997
42
-0.41421356237309503
10
349.40000000000003
20
59.675000000000004
10
336.39999999999992
20
59.675000000000026
42
-0.41421356237309503
10
335.89999999999998
20
60.174999999999997
10
335.89999999999998
20
73.174999999999997
42
-0.41421356237309503
0
LWPOLYLINE
5
106
100
AcDbEntity
8
0
100
AcDbPolyline
90
8
70
1
43
0.0
10
388.00000578165054
20
73.174999999999997
10
388.00000578165054
20
60.174999999999997
42
-0.41421356237309503
10
387.50000578165054
20
59.675000000000004
10
374.49999999999994
20
59.675000000000026
42
-0.41421356237309503
10
374
20
60.174999999999997
10
373.99999999999989
20
73.174999999999997
42
-0.41421356237309503
10
374.49999999999989
20
73.674999999999997
10
387.50000578165054
20
73.674999999999969
42
-0.41421356237309503
0
LWPOLYLINE
5
107
100
AcDbEntity
8
0
100
AcDbPolyline
90
8
70
1
43
0.0
10
335.89999999999998
20
41.125000000000007
10
335.89999999999998
20
54.125000000000007
42
-0.41421356237309503
10
336.39999999999992
20
54.625
10
349.40000000000003
20
54.624999999999979
42
-0.41421356237309503
10
349.90000000000003
20
54.125000000000007
10
349.90000000000003
20
41.125000000000007
42
-0.41421356237309503
10
349.40000000000003
20
40.625000000000007
10
336.39999999999992
20
40.625000000000036
42
-0.41421356237309503
0
LWPOLYLINE
5
108
100
AcDbEntity
8
0
100
AcDbPolyline
90
8
70
1
43
0.0
10
354.94999999999999
20
41.125000000000007
10
354.94999999999999
20
54.125000000000007
42
-0.41421356237309503
10
355.44999999999993
20
54.625
10
368.44999999999999
20
54.624999999999979
42
-0.41421356237309503
10
368.94999999999993
20
54.125000000000007
10
368.94999999999993
20
41.125000000000007
42
-0.41421356237309503
10
368.44999999999999
20
40.625000000000007
10
355.44999999999993
20
40.625000000000036
42
-0.41421356237309503
0
LWPOLYLINE
5
109
100
AcDbEntity
8
0
100
AcDbPolyline
90
4
70
1
43
0.0
10
37.100000000000001
20
56.75
10
43.862500000000004
20
56.75
10
43.862500000000004
20
38.700000000000003
10
37.100000000000001
20
38.700000000000003
0
LWPOLYLINE
5
110
100
AcDbEntity
8
0
100
AcDbPolyline
90
4
70
1
43
0.0
10
328.53200000000004
20
56.75
10
333.37500000000006
20
56.75
10
333.37500000000006
20
38.700000000000003
10
328.53200000000004
20
38.700000000000003
0
LWPOLYLINE
5
111
100
AcDbEntity
8
0
100
AcDbPolyline
90
8
70
1
43
0.0
10
21.575000000000003
20
60.174999999999997
42
0.41421356237309764
10
22.074999999999999
20
59.675000000000011
10
35.075000000000003
20
59.674999999999997
42
0.41421356237308204
10
35.57500000000001
20
60.174999999999997
10
35.575000000000003
20
73.174999999999997
42
0.41421356237309503
10
35.075000000000003
20
73.674999999999997
10
22.074999999999999
20
73.674999999999997
42
0.41421356237309503
10
21.574999999999989
20
73.174999999999997
0
LWPOLYLINE
5
112
100
AcDbEntity
8
0
100
AcDbPolyline
90
8
70
1
43
0.0
10
2.5250000000000017
20
60.174999999999997
42
0.41421356237309698
10
3.0249999999999999
20
59.675000000000004
10
16.024999999999999
20
59.675000000000004
42
0.41421356237309764
10
16.524999999999999
20
60.174999999999997
10
16.524999999999999
20
73.174999999999997
42
0.41421356237310025
10
16.024999999999991
20
73.674999999999997
10
3.0249999999999999
20
73.674999999999997
42
0.41421356237309404
10
2.5250000000000128
20
73.174999999999997
0
LWPOLYLINE
5
113
100
AcDbEntity
8
0
100
AcDbPolyline
90
8
70
1
43
0.0
10
374.00000000000006
20
79.224999999999994
42
0.41421356237310542
10
374.5
20
78.725000000000009
10
387.5
20
78.724999999999952
42
0.4142135623730222
10
388.00000000000006
20
79.224999999999994
10
388
20
92.224999999999994
42
0.41421356237310542
10
387.5
20
92.724999999999994
10
374.5
20
92.725000000000051
42
0.41421356237303258
10
374
20
92.224999999999994
0
LWPOLYLINE
5
114
100
AcDbEntity
8
0
100
AcDbPolyline
90
8
70
1
43
0.0
10
240.65000000000001
20
60.174999999999997
42
0.4142135623730222
10
241.15000000000003
20
59.674999999999976
10
254.15000000000003
20
59.674999999999997
42
0.41421356237313667
10
254.65000000000003
20
60.174999999999997
10
254.65000000000003
20
73.174999999999997
42
0.41421356237307422
10
254.15000000000003
20
73.674999999999997
10
241.15000000000003
20
73.675000000000011
42
0.41421356237312101
10
240.65000000000001
20
73.174999999999997
0
LWPOLYLINE
5
115
100
AcDbEntity
8
0
100
AcDbPolyline
90
14
70
1
43
0.0
10
308.91874999999999
20
59.674999999999997
10
286.31325000000004
20
59.674999999999983
42
-0.4142135623730378
10
285.81325000000004
20
60.174999999999997
10
285.81324999999998
20
73.174999999999997
42
-0.41421356237314705
10
286.31325000000004
20
73.674999999999983
10
286.90025000000003
20
73.674999999999997
10
286.90024999999997
20
75.174999999999997
42
-0.41421356237309503
10
287.40024999999997
20
75.674999999999983
10
293.48075
20
75.675000000000026
42
-0.4142135623730222
10
293.98075
20
75.174999999999997
10
293.98075
20
73.674999999999997
10
308.91874999999999
20
73.675000000000026
42
-0.4142135623730222
10
309.41874999999999
20
73.174999999999997
10
309.41875000000005
20
60.174999999999997
42
-0.41421356237312623
0
LWPOLYLINE
5
116
100
AcDbEntity
8
0
100
AcDbPolyline
90
8
70
1
43
0.0
10
2.5250000000000017
20
79.224999999999994
42
0.41421356237309698
10
3.0249999999999999
20
78.724999999999994
10
16.024999999999999
20
78.724999999999994
42
0.41421356237309764
10
16.524999999999999
20
79.224999999999994
10
16.524999999999991
20
92.224999999999994
42
0.41421356237311974
10
16.024999999999991
20
92.724999999999994
10
3.0249999999999999
20
92.725000000000009
42
0.41421356237310542
10
2.5250000000000128
20
92.224999999999994
0
LWPOLYLINE
5
117
100
AcDbEntity
8
0
100
AcDbPolyline
90
8
70
1
43
0.0
10
354.95000000000005
20
60.174999999999997
42
0.41421356237310542
10
355.45000000000005
20
59.675000000000011
10
368.44999999999999
20
59.674999999999955
42
0.4142135623730222
10
368.95000000000005
20
60.174999999999997
10
368.94999999999993
20
73.174999999999997
42
0.41421356237311585
10
368.44999999999999
20
73.674999999999997
10
355.45000000000005
20
73.67500000000004
42
0.41421356237302737
10
354.94999999999999
20
73.174999999999997
0
LWPOLYLINE
5
118
100
AcDbEntity
8
0
100
AcDbPolyline
90
8
70
1
43
0.0
10
259.69999999999999
20
60.174999999999997
42
0.41421356237307422
10
260.19999999999999
20
59.675000000000026
10
273.19999999999999
20
59.674999999999997
42
0.41421356237312623
10
273.69999999999999
20
60.174999999999997
10
273.69999999999999
20
73.174999999999997
42
0.4142135623730222
10
273.19999999999999
20
73.674999999999997
10
260.19999999999999
20
73.675000000000011
42
0.41421356237313145
10
259.69999999999999
20
73.174999999999997
0
LWPOLYLINE
5
119
100
AcDbEntity
8
0
100
AcDbPolyline
90
8
70
1
43
0.0
10
202.55000000000001
20
60.174999999999997
42
0.41421356237307422
10
203.05000000000004
20
59.675000000000026
10
216.05000000000004
20
59.675000000000026
42
0.41421356237310025
10
216.55000000000001
20
60.174999999999997
10
216.55000000000004
20
73.174999999999997
42
0.4142135623730222
10
216.05000000000004
20
73.674999999999997
10
203.05000000000004
20
73.675000000000011
42
0.41421356237313145
10
202.55000000000001
20
73.174999999999997
0
LWPOLYLINE
5
120
100
AcDbEntity
8
0
100
AcDbPolyline
90
8
70
1
43
0.0
10
183.5
20
60.174999999999997
42
0.41421356237307422
10
184.00000000000003
20
59.675000000000026
10
197.00000000000003
20
59.675000000000026
42
0.41421356237310025
10
197.5
20
60.174999999999997
10
197.50000000000003
20
73.174999999999997
42
0.4142135623730222
10
197.00000000000003
20
73.674999999999997
10
184.00000000000003
20
73.675000000000011
42
0.41421356237313145
10
183.5
20
73.174999999999997
0
LWPOLYLINE
5
121
100
AcDbEntity
8
0
100
AcDbPolyline
90
8
70
1
43
0.0
10
221.59999999999999
20
60.174999999999997
42
0.4142135623730222
10
222.10000000000002
20
59.674999999999976
10
235.10000000000002
20
59.674999999999997
42
0.41421356237313667
10
235.60000000000002
20
60.174999999999997
10
235.60000000000002
20
73.174999999999997
42
0.41421356237307422
10
235.10000000000002
20
73.674999999999997
10
222.10000000000002
20
73.675000000000011
42
0.41421356237312101
10
221.59999999999999
20
73.174999999999997
0
LWPOLYLINE
5
122
100
AcDbEntity
8
0
100
AcDbPolyline
90
8
70
1
43
0.0
10
21.575000000000003
20
79.224999999999994
42
0.41421356237309764
10
22.074999999999999
20
78.725000000000009
10
35.075000000000003
20
78.724999999999994
42
0.41421356237308204
10
35.57500000000001
20
79.224999999999994
10
35.574999999999989
20
92.224999999999994
42
0.41421356237311324
10
35.075000000000003
20
92.724999999999994
10
22.074999999999999
20
92.725000000000009
42
0.41421356237310802
10
21.574999999999989
20
92.224999999999994
0
LWPOLYLINE
5
123
100
AcDbEntity
8
0
100
AcDbPolyline
90
8
70
1
43
0.0
10
164.44999999999999
20
60.174999999999997
42
0.41421356237307422
10
164.95000000000002
20
59.675000000000026
10
177.94999999999999
20
59.674999999999997
42
0.41421356237313667
10
178.44999999999999
20
60.174999999999997
10
178.44999999999999
20
73.174999999999997
42
0.41421356237307422
10
177.94999999999999
20
73.674999999999997
10
164.95000000000002
20
73.675000000000011
42
0.41421356237313145
10
164.44999999999999
20
73.174999999999997
0
LWPOLYLINE
5
124
100
AcDbEntity
8
0
100
AcDbPolyline
90
8
70
1
43
0.0
10
88.25
20
60.174999999999997
42
0.41421356237310542
10
88.75
20
59.675000000000011
10
101.75
20
59.674999999999997
42
0.41421356237310025
10
102.25000000000001
20
60.174999999999997
10
102.25000000000001
20
73.174999999999997
42
0.41421356237308982
10
101.75
20
73.674999999999997
10
88.75
20
73.674999999999983
42
0.41421356237311585
10
88.250000000000014
20
73.174999999999997
0
LWPOLYLINE
5
125
100
AcDbEntity
8
0
100
AcDbPolyline
90
8
70
1
43
0.0
10
107.30000000000001
20
60.174999999999997
42
0.41421356237310542
10
107.80000000000001
20
59.675000000000011
10
120.8
20
59.674999999999997
42
0.41421356237307944
10
121.30000000000001
20
60.174999999999997
10
121.29999999999998
20
73.174999999999997
42
0.41421356237310025
10
120.8
20
73.674999999999997
10
107.80000000000001
20
73.675000000000011
42
0.41421356237309503
10
107.30000000000001
20
73.174999999999997
0
LWPOLYLINE
5
126
100
AcDbEntity
8
0
100
AcDbPolyline
90
8
70
1
43
0.0
10
126.35000000000002
20
60.174999999999997
42
0.41421356237310542
10
126.85000000000001
20
59.674999999999997
10
139.84999999999999
20
59.674999999999997
42
0.41421356237310025
10
140.34999999999999
20
60.174999999999997
10
140.34999999999999
20
73.174999999999997
42
0.41421356237308982
10
139.84999999999999
20
73.674999999999997
10
126.85000000000001
20
73.675000000000011
42
0.41421356237307422
10
126.34999999999999
20
73.174999999999997
0
LWPOLYLINE
5
127
100
AcDbEntity
8
0
100
AcDbPolyline
90
8
70
1
43
0.0
10
145.40000000000003
20
60.174999999999997
42
0.41421356237310542
10
145.90000000000001
20
59.674999999999997
10
158.90000000000001
20
59.674999999999997
42
0.41421356237310025
10
159.40000000000001
20
60.174999999999997
10
159.40000000000001
20
73.174999999999997
42
0.41421356237308982
10
158.90000000000001
20
73.674999999999997
10
145.90000000000001
20
73.675000000000011
42
0.41421356237307422
10
145.40000000000001
20
73.174999999999997
0
LWPOLYLINE
5
128
100
AcDbEntity
8
0
100
AcDbPolyline
90
8
70
1
43
0.0
10
260.19999999999999
20
92.725000000000009
10
275.58125000000007
20
92.725000000000009
42
-0.41421356237307422
10
276.08125000000001
20
92.224999999999994
10
276.08125000000001
20
79.224999999999994
42
-0.41421356237310025
10
275.58125000000007
20
78.725000000000023
10
260.19999999999999
20
78.725000000000023
42
-0.41421356237307422
10
259.69999999999999
20
79.224999999999994
10
259.69999999999999
20
92.224999999999994
42
-0.41421356237313667
0
LWPOLYLINE
5
129
100
AcDbEntity
8
0
100
AcDbPolyline
90
8
70
1
43
0.0
10
250.17500000000001
20
41.125
42
0.4142135623730222
10
250.67500000000001
20
40.624999999999972
10
263.67500000000001
20
40.624999999999993
42
0.41421356237313145
10
264.17500000000007
20
41.125
10
264.17500000000007
20
54.125000000000007
42
0.41421356237307422
10
263.67500000000001
20
54.625
10
250.67500000000001
20
54.625000000000014
42
0.41421356237312101
10
250.17500000000001
20
54.125000000000007
0
LWPOLYLINE
5
130
100
AcDbEntity
8
0
100
AcDbPolyline
90
8
70
1
43
0.0
10
173.97500000000002
20
41.125
42
0.41421356237307422
10
174.47500000000002
20
40.625000000000028
10
187.47499999999999
20
40.624999999999993
42
0.41421356237313145
10
187.97499999999999
20
41.125
10
187.97499999999999
20
54.125000000000007
42
0.41421356237307422
10
187.47499999999999
20
54.625
10
174.47500000000002
20
54.625000000000014
42
0.41421356237313145
10
173.97500000000002
20
54.125000000000007
0
LWPOLYLINE
5
131
100
AcDbEntity
8
0
100
AcDbPolyline
90
8
70
1
43
0.0
10
231.125
20
41.125
42
0.4142135623730222
10
231.625
20
40.624999999999972
10
244.62500000000003
20
40.624999999999993
42
0.41421356237313145
10
245.12500000000003
20
41.125
10
245.12500000000003
20
54.125000000000007
42
0.41421356237307422
10
244.62500000000003
20
54.625
10
231.625
20
54.625000000000014
42
0.41421356237312101
10
231.125
20
54.125000000000007
0
LWPOLYLINE
5
132
100
AcDbEntity
8
0
100
AcDbPolyline
90
8
70
1
43
0.0
10
193.02500000000003
20
41.125
42
0.41421356237307422
10
193.52500000000003
20
40.625000000000028
10
206.52500000000003
20
40.625000000000028
42
0.41421356237310025
10
207.02500000000001
20
41.125
10
207.02500000000003
20
54.125000000000007
42
0.4142135623730222
10
206.52500000000003
20
54.625
10
193.52500000000003
20
54.625000000000014
42
0.41421356237313145
10
193.02500000000003
20
54.125000000000007
0
LWPOLYLINE
5
133
100
AcDbEntity
8
0
100
AcDbPolyline
90
8
70
1
43
0.0
10
212.07499999999999
20
41.125
42
0.4142135623730222
10
212.57499999999999
20
40.624999999999972
10
225.57500000000002
20
40.624999999999993
42
0.41421356237313145
10
226.07500000000002
20
41.125
10
226.07500000000002
20
54.125000000000007
42
0.41421356237307422
10
225.57500000000002
20
54.625
10
212.57499999999999
20
54.625000000000014
42
0.41421356237312101
10
212.07499999999999
20
54.125000000000007
0
LWPOLYLINE
5
134
100
AcDbEntity
8
0
100
AcDbPolyline
90
8
70
1
43
0.0
10
154.92500000000004
20
41.125
42
0.41421356237308982
10
155.42500000000001
20
40.625
10
168.42500000000001
20
40.624999999999993
42
0.41421356237312101
10
168.92500000000001
20
41.125
10
168.92500000000001
20
54.125000000000007
42
0.4142135623730222
10
168.42500000000001
20
54.625
10
155.42500000000001
20
54.625000000000014
42
0.41421356237307422
10
154.92500000000001
20
54.125000000000007
0
LWPOLYLINE
5
135
100
AcDbEntity
8
0
100
AcDbPolyline
90
8
70
1
43
0.0
10
269.22500000000002
20
41.125
42
0.4142135623730222
10
269.72500000000002
20
40.624999999999972
10
282.72500000000002
20
40.624999999999993
42
0.41421356237313145
10
283.22500000000002
20
41.125
10
283.22500000000002
20
54.125000000000007
42
0.41421356237307422
10
282.72500000000002
20
54.625
10
269.72500000000002
20
54.625000000000014
42
0.41421356237312101
10
269.22500000000002
20
54.125000000000007
0
LWPOLYLINE
5
136
100
AcDbEntity
8
0
100
AcDbPolyline
90
8
70
1
43
0.0
10
135.87500000000003
20
41.125
42
0.41421356237308982
10
136.375
20
40.625
10
149.375
20
40.624999999999993
42
0.41421356237309503
10
149.875
20
41.125
10
149.875
20
54.125000000000007
42
0.41421356237308982
10
149.375
20
54.625
10
136.375
20
54.625000000000014
42
0.41421356237307422
10
135.875
20
54.125000000000007
0
LWPOLYLINE
5
137
100
AcDbEntity
8
0
100
AcDbPolyline
90
8
70
1
43
0.0
10
335.90000000000003
20
22.074999999999999
42
0.41421356237311063
10
336.39999999999998
20
21.575000000000003
10
349.39999999999998
20
21.574999999999957
42
0.41421356237302998
10
349.90000000000003
20
22.074999999999999
10
349.89999999999998
20
35.075000000000003
42
0.41421356237310802
10
349.39999999999998
20
35.57500000000001
10
336.39999999999998
20
35.575000000000045
42
0.41421356237303258
10
335.89999999999998
20
35.075000000000003
0
LWPOLYLINE
5
138
100
AcDbEntity
8
0
100
AcDbPolyline
90
8
70
1
43
0.0
10
97.775000000000006
20
41.125
42
0.41421356237308982
10
98.275000000000006
20
40.625
10
111.27500000000001
20
40.624999999999993
42
0.41421356237309503
10
111.77500000000002
20
41.125
10
111.77500000000002
20
54.125000000000007
42
0.41421356237308982
10
111.27500000000001
20
54.625
10
98.275000000000006
20
54.624999999999993
42
0.41421356237311585
10
97.77500000000002
20
54.125000000000007
0
LWPOLYLINE
5
139
100
AcDbEntity
8
0
100
AcDbPolyline
90
8
70
1
43
0.0
10
354.95000000000005
20
22.074999999999999
42
0.41421356237311063
10
355.45000000000005
20
21.575000000000003
10
368.44999999999999
20
21.574999999999957
42
0.41421356237302998
10
368.95000000000005
20
22.074999999999999
10
368.94999999999993
20
35.075000000000003
42
0.41421356237310802
10
368.44999999999999
20
35.57500000000001
10
355.45000000000005
20
35.575000000000045
42
0.41421356237303258
10
354.94999999999999
20
35.075000000000003
0
LWPOLYLINE
5
140
100
AcDbEntity
8
0
100
AcDbPolyline
90
8
70
1
43
0.0
10
116.82500000000002
20
41.125
42
0.41421356237308982
10
117.32500000000002
20
40.625
10
130.32499999999999
20
40.624999999999993
42
0.41421356237309503
10
130.82499999999999
20
41.125
10
130.82499999999999
20
54.125000000000007
42
0.41421356237308982
10
130.32499999999999
20
54.625
10
117.32500000000002
20
54.625000000000014
42
0.41421356237309503
10
116.82500000000002
20
54.125000000000007
0
LWPOLYLINE
5
141
100
AcDbEntity
8
0
100
AcDbPolyline
90
8
70
1
43
0.0
10
374.00000000000006
20
22.074999999999999
42
0.41421356237311063
10
374.5
20
21.575000000000003
10
387.5
20
21.574999999999957
42
0.41421356237302998
10
388.00000000000006
20
22.074999999999999
10
388
20
35.075000000000003
42
0.41421356237310802
10
387.5
20
35.57500000000001
10
374.5
20
35.575000000000045
42
0.41421356237303258
10
374
20
35.075000000000003
0
LWPOLYLINE
5
142
100
AcDbEntity
8
0
100
AcDbPolyline
90
8
70
1
43
0.0
10
2.5250000000000017
20
41.125
42
0.41421356237309437
10
3.0249999999999999
20
40.625
10
16.024999999999999
20
40.625
42
0.41421356237309503
10
16.524999999999999
20
41.125
10
16.524999999999999
20
54.125000000000007
42
0.41421356237310025
10
16.024999999999991
20
54.625
10
3.0249999999999999
20
54.625
42
0.41421356237309404
10
2.5250000000000128
20
54.125000000000007
0
LWPOLYLINE
5
143
100
AcDbEntity
8
0
100
AcDbPolyline
90
8
70
1
43
0.0
10
78.724999999999994
20
41.125
42
0.41421356237309503
10
79.224999999999994
20
40.625
10
92.224999999999994
20
40.625000000000007
42
0.41421356237311585
10
92.724999999999994
20
41.125
10
92.725000000000009
20
54.125000000000007
42
0.41421356237308982
10
92.224999999999994
20
54.625
10
79.224999999999994
20
54.625
42
0.41421356237309503
10
78.724999999999994
20
54.125000000000007
0
LWPOLYLINE
5
144
100
AcDbEntity
8
0
100
AcDbPolyline
90
8
70
1
43
0.0
10
21.575000000000003
20
41.125
42
0.41421356237309503
10
22.074999999999999
20
40.625
10
35.075000000000003
20
40.625
42
0.41421356237308721
10
35.57500000000001
20
41.125
10
35.575000000000003
20
54.125000000000007
42
0.41421356237309503
10
35.075000000000003
20
54.625
10
22.074999999999999
20
54.625
42
0.41421356237309503
10
21.574999999999989
20
54.125000000000007
0
LWPOLYLINE
5
145
100
AcDbEntity
8
0
100
AcDbPolyline
90
8
70
1
43
0.0
10
188.26249999999999
20
22.074999999999999
42
0.41421356237305079
10
188.76249999999999
20
21.574999999999996
10
201.76249999999999
20
21.574999999999992
42
0.41421356237313406
10
202.26249999999999
20
22.074999999999999
10
202.26249999999999
20
35.075000000000003
42
0.41421356237313145
10
201.76249999999999
20
35.57500000000001
10
188.76249999999999
20
35.57500000000001
42
0.41421356237310025
10
188.26249999999999
20
35.075000000000003
0
LWPOLYLINE
5
146
100
AcDbEntity
8
0
100
AcDbPolyline
90
8
70
1
43
0.0
10
207.3125
20
22.074999999999999
42
0.41421356237305079
10
207.8125
20
21.574999999999996
10
220.8125
20
21.574999999999992
42
0.41421356237313406
10
221.3125
20
22.074999999999999
10
221.3125
20
35.075000000000003
42
0.41421356237313145
10
220.8125
20
35.57500000000001
10
207.8125
20
35.574999999999974
42
0.41421356237309764
10
207.31250000000003
20
35.075000000000003
0
LWPOLYLINE
5
147
100
AcDbEntity
8
0
100
AcDbPolyline
90
8
70
1
43
0.0
10
283.51249999999999
20
22.074999999999999
42
0.41421356237308204
10
284.01249999999999
20
21.575000000000017
10
297.01250000000005
20
21.575000000000028
42
0.41421356237309764
10
297.51249999999999
20
22.074999999999999
10
297.51250000000005
20
35.075000000000003
42
0.41421356237312101
10
297.01250000000005
20
35.57500000000001
10
284.01249999999999
20
35.57500000000001
42
0.41421356237313145
10
283.51249999999999
20
35.075000000000003
0
LWPOLYLINE
5
148
100
AcDbEntity
8
0
100
AcDbPolyline
90
8
70
1
43
0.0
10
264.46249999999998
20
22.074999999999999
42
0.41421356237308204
10
264.96249999999998
20
21.575000000000017
10
277.96249999999998
20
21.575000000000028
42
0.41421356237309764
10
278.46249999999998
20
22.074999999999999
10
278.46250000000003
20
35.075000000000003
42
0.41421356237312101
10
277.96249999999998
20
35.57500000000001
10
264.96249999999998
20
35.57500000000001
42
0.41421356237313145
10
264.46249999999998
20
35.075000000000003
0
LWPOLYLINE
5
149
100
AcDbEntity
8
0
100
AcDbPolyline
90
8
70
1
43
0.0
10
245.41250000000002
20
22.074999999999999
42
0.41421356237305079
10
245.91250000000002
20
21.574999999999996
10
258.91250000000002
20
21.574999999999992
42
0.41421356237313406
10
259.41250000000002
20
22.074999999999999
10
259.41250000000002
20
35.075000000000003
42
0.41421356237313145
10
258.91250000000002
20
35.57500000000001
10
245.91250000000002
20
35.57500000000001
42
0.41421356237310025
10
245.41250000000002
20
35.075000000000003
0
LWPOLYLINE
5
150
100
AcDbEntity
8
0
100
AcDbPolyline
90
8
70
1
43
0.0
10
226.36250000000001
20
22.074999999999999
42
0.41421356237305079
10
226.86250000000001
20
21.574999999999996
10
239.86250000000001
20
21.574999999999992
42
0.41421356237313406
10
240.36250000000001
20
22.074999999999999
10
240.36250000000001
20
35.075000000000003
42
0.41421356237313145
10
239.86250000000001
20
35.57500000000001
10
226.86250000000001
20
35.574999999999974
42
0.41421356237309764
10
226.36250000000004
20
35.075000000000003
0
LWPOLYLINE
5
151
100
AcDbEntity
8
0
100
AcDbPolyline
90
8
70
1
43
0.0
10
2.5249999999999999
20
3.0249999999999999
42
0.41421356237309437
10
3.0249999999999999
20
2.5249999999999999
10
16.024999999999999
20
2.5250000000000017
42
0.4142135623730957
10
16.524999999999999
20
3.0249999999999999
10
16.524999999999999
20
16.024999999999999
42
0.41421356237310281
10
16.024999999999991
20
16.524999999999999
10
3.0249999999999999
20
16.525000000000002
42
0.4142135623730947
10
2.5250000000000128
20
16.024999999999999
0
LWPOLYLINE
5
152
100
AcDbEntity
8
0
100
AcDbPolyline
90
8
70
1
43
0.0
10
21.575000000000003
20
3.0249999999999999
42
0.41421356237309537
10
22.074999999999999
20
2.5250000000000012
10
35.075000000000003
20
2.5249999999999972
42
0.41421356237309631
10
35.57500000000001
20
3.0249999999999999
10
35.575000000000003
20
16.024999999999999
42
0.41421356237309631
10
35.075000000000003
20
16.524999999999999
10
22.074999999999999
20
16.524999999999999
42
0.41421356237309631
10
21.574999999999989
20
16.024999999999999
0
LWPOLYLINE
5
153
100
AcDbEntity
8
0
100
AcDbPolyline
90
8
70
1
43
0.0
10
45.387500000000003
20
3.0249999999999999
42
0.41421356237309404
10
45.887500000000003
20
2.5250000000000035
10
58.88750000000001
20
2.5250000000000017
42
0.41421356237309437
10
59.387500000000024
20
3.0249999999999999
10
59.387500000000003
20
16.024999999999999
42
0.41421356237308982
10
58.887500000000017
20
16.524999999999999
10
45.887500000000003
20
16.524999999999999
42
0.41421356237309503
10
45.387500000000003
20
16.024999999999999
0
LWPOLYLINE
5
154
100
AcDbEntity
8
0
100
AcDbPolyline
90
8
70
1
43
0.0
10
64.4375
20
3.0249999999999999
42
0.41421356237309664
10
64.9375
20
2.524999999999999
10
77.9375
20
2.5250000000000017
42
0.41421356237309437
10
78.4375
20
3.0249999999999999
10
78.4375
20
16.024999999999999
42
0.41421356237310025
10
77.9375
20
16.524999999999999
10
64.9375
20
16.524999999999999
42
0.41421356237309764
10
64.437500000000014
20
16.024999999999999
0
LWPOLYLINE
5
155
100
AcDbEntity
8
0
100
AcDbPolyline
90
8
70
1
43
0.0
10
83.487499999999983
20
3.0249999999999999
42
0.41421356237310542
10
83.987499999999997
20
2.5250000000000106
10
96.987500000000011
20
2.5249999999999928
42
0.41421356237309437
10
97.487500000000011
20
3.0249999999999999
10
97.487500000000011
20
16.024999999999999
42
0.41421356237310414
10
96.987500000000011
20
16.524999999999999
10
83.987499999999997
20
16.524999999999991
42
0.41421356237311452
10
83.487500000000011
20
16.024999999999999
0
LWPOLYLINE
5
156
100
AcDbEntity
8
0
100
AcDbPolyline
90
8
70
1
43
0.0
10
102.53749999999999
20
3.0249999999999999
42
0.41421356237310542
10
103.03750000000001
20
2.5250000000000106
10
116.03749999999999
20
2.5249999999999928
42
0.41421356237307355
10
116.53750000000001
20
3.0249999999999999
10
116.53749999999999
20
16.024999999999999
42
0.41421356237308721
10
116.03749999999999
20
16.524999999999999
10
103.03750000000001
20
16.525000000000006
42
0.41421356237309631
10
102.53749999999999
20
16.024999999999999
0
LWPOLYLINE
5
157
100
AcDbEntity
8
0
100
AcDbPolyline
90
8
70
1
43
0.0
10
121.58750000000001
20
3.0249999999999999
42
0.41421356237310542
10
122.08750000000002
20
2.5250000000000106
10
135.08750000000001
20
2.5249999999999928
42
0.41421356237307355
10
135.58750000000001
20
3.0249999999999999
10
135.58750000000001
20
16.024999999999999
42
0.41421356237308721
10
135.08750000000001
20
16.524999999999999
10
122.08750000000002
20
16.525000000000006
42
0.41421356237309631
10
121.58750000000001
20
16.024999999999999
0
LWPOLYLINE
5
158
100
AcDbEntity
8
0
100
AcDbPolyline
90
8
70
1
43
0.0
10
140.63749999999999
20
3.0249999999999999
42
0.41421356237310542
10
141.13749999999999
20
2.5250000000000106
10
154.13749999999999
20
2.5250000000000106
42
0.41421356237311519
10
154.63749999999999
20
3.0249999999999999
10
154.63750000000002
20
16.024999999999999
42
0.41421356237310414
10
154.13749999999999
20
16.524999999999999
10
141.13749999999999
20
16.525000000000006
42
0.41421356237309631
10
140.63749999999999
20
16.024999999999999
0
LWPOLYLINE
5
159
100
AcDbEntity
8
0
100
AcDbPolyline
90
8
70
1
43
0.0
10
159.6875
20
3.0249999999999999
42
0.41421356237309503
10
160.1875
20
2.5249999999999928
10
173.1875
20
2.5249999999999928
42
0.41421356237310153
10
173.68750000000003
20
3.0249999999999999
10
173.68750000000003
20
16.024999999999999
42
0.41421356237304563
10
173.1875
20
16.524999999999999
10
160.1875
20
16.525000000000006
42
0.41421356237309631
10
159.6875
20
16.024999999999999
0
LWPOLYLINE
5
160
100
AcDbEntity
8
0
100
AcDbPolyline
90
8
70
1
43
0.0
10
178.73750000000001
20
3.0249999999999999
42
0.41421356237307749
10
179.23750000000001
20
2.5250000000000226
10
192.23750000000001
20
2.5249999999999928
42
0.41421356237310153
10
192.73750000000004
20
3.0249999999999999
10
192.73750000000004
20
16.024999999999999
42
0.41421356237304563
10
192.23750000000001
20
16.524999999999999
10
179.23750000000001
20
16.525000000000006
42
0.41421356237313406
10
178.73750000000001
20
16.024999999999999
0
LWPOLYLINE
5
161
100
AcDbEntity
8
0
100
AcDbPolyline
90
8
70
1
43
0.0
10
197.78749999999999
20
3.0249999999999999
42
0.41421356237304624
10
198.28749999999999
20
2.5250000000000048
10
211.28749999999999
20
2.5249999999999928
42
0.41421356237313273
10
211.78750000000002
20
3.0249999999999999
10
211.78750000000002
20
16.024999999999999
42
0.41421356237307683
10
211.28749999999999
20
16.524999999999999
10
198.28749999999999
20
16.52499999999997
42
0.41421356237309631
10
197.78750000000002
20
16.024999999999999
0
LWPOLYLINE
5
162
100
AcDbEntity
8
0
100
AcDbPolyline
90
8
70
1
43
0.0
10
216.83750000000001
20
3.0249999999999999
42
0.41421356237304624
10
217.33750000000001
20
2.5250000000000048
10
230.33750000000001
20
2.5249999999999928
42
0.41421356237313273
10
230.83750000000003
20
3.0249999999999999
10
230.83750000000003
20
16.024999999999999
42
0.41421356237307683
10
230.33750000000001
20
16.524999999999999
10
217.33750000000001
20
16.52499999999997
42
0.41421356237309631
10
216.83750000000003
20
16.024999999999999
0
LWPOLYLINE
5
163
100
AcDbEntity
8
0
100
AcDbPolyline
90
8
70
1
43
0.0
10
93.012499999999989
20
22.074999999999999
42
0.41421356237310802
10
93.512500000000003
20
21.575000000000006
10
106.51250000000002
20
21.574999999999992
42
0.41421356237309503
10
107.01250000000002
20
22.074999999999999
10
107.01250000000002
20
35.075000000000003
42
0.41421356237309243
10
106.51250000000002
20
35.57500000000001
10
93.512500000000003
20
35.574999999999989
42
0.41421356237311324
10
93.012500000000017
20
35.075000000000003
0
LWPOLYLINE
5
164
100
AcDbEntity
8
0
100
AcDbPolyline
90
8
70
1
43
0.0
10
131.11250000000001
20
22.074999999999999
42
0.41421356237310802
10
131.61250000000001
20
21.575000000000006
10
144.61250000000001
20
21.574999999999992
42
0.41421356237307422
10
145.11250000000001
20
22.074999999999999
10
145.11250000000001
20
35.075000000000003
42
0.41421356237307161
10
144.61250000000001
20
35.57500000000001
10
131.61250000000001
20
35.57500000000001
42
0.41421356237309243
10
131.11250000000001
20
35.075000000000003
0
LWPOLYLINE
5
165
100
AcDbEntity
8
0
100
AcDbPolyline
90
8
70
1
43
0.0
10
73.962500000000006
20
22.074999999999999
42
0.41421356237309764
10
74.462500000000006
20
21.574999999999996
10
87.46250000000002
20
21.57500000000001
42
0.41421356237309764
10
87.962500000000006
20
22.074999999999999
10
87.96250000000002
20
35.075000000000003
42
0.41421356237307161
10
87.46250000000002
20
35.57500000000001
10
74.462500000000006
20
35.575000000000003
42
0.41421356237309764
10
73.96250000000002
20
35.075000000000003
0
LWPOLYLINE
5
166
100
AcDbEntity
8
0
100
AcDbPolyline
90
8
70
1
43
0.0
10
112.0625
20
22.074999999999999
42
0.41421356237310802
10
112.56250000000001
20
21.575000000000006
10
125.5625
20
21.574999999999992
42
0.41421356237307422
10
126.06250000000001
20
22.074999999999999
10
126.06250000000001
20
35.075000000000003
42
0.41421356237307161
10
125.5625
20
35.57500000000001
10
112.56250000000001
20
35.57500000000001
42
0.41421356237309243
10
112.0625
20
35.075000000000003
0
LWPOLYLINE
5
167
100
AcDbEntity
8
0
100
AcDbPolyline
90
8
70
1
43
0.0
10
50.150000000000006
20
22.074999999999999
42
0.41421356237309503
10
50.650000000000006
20
21.575000000000003
10
63.650000000000006
20
21.574999999999992
42
0.41421356237310281
10
64.150000000000034
20
22.074999999999999
10
64.150000000000006
20
35.075000000000003
42
0.41421356237309243
10
63.649999999999984
20
35.57500000000001
10
50.650000000000006
20
35.575000000000003
42
0.41421356237309503
10
50.150000000000006
20
35.075000000000003
0
LWPOLYLINE
5
168
100
AcDbEntity
8
0
100
AcDbPolyline
90
8
70
1
43
0.0
10
169.21250000000001
20
22.074999999999999
42
0.41421356237308204
10
169.71250000000001
20
21.575000000000017
10
182.71250000000003
20
21.574999999999992
42
0.41421356237310281
10
183.21250000000003
20
22.074999999999999
10
183.21250000000003
20
35.075000000000003
42
0.41421356237312101
10
182.71250000000003
20
35.57500000000001
10
169.71250000000001
20
35.57500000000001
42
0.41421356237313145
10
169.21250000000001
20
35.075000000000003
0
LWPOLYLINE
5
169
100
AcDbEntity
8
0
100
AcDbPolyline
90
8
70
1
43
0.0
10
21.575000000000003
20
22.074999999999999
42
0.41421356237309503
10
22.074999999999999
20
21.575000000000003
10
35.075000000000003
20
21.574999999999996
42
0.41421356237310281
10
35.57500000000001
20
22.074999999999999
10
35.575000000000003
20
35.075000000000003
42
0.41421356237310025
10
35.075000000000003
20
35.57500000000001
10
22.074999999999999
20
35.575000000000003
42
0.41421356237309503
10
21.574999999999989
20
35.075000000000003
0
LWPOLYLINE
5
170
100
AcDbEntity
8
0
100
AcDbPolyline
90
8
70
1
43
0.0
10
150.16249999999999
20
22.074999999999999
42
0.41421356237310802
10
150.66249999999999
20
21.575000000000006
10
163.66250000000002
20
21.574999999999992
42
0.41421356237310281
10
164.16250000000002
20
22.074999999999999
10
164.16250000000002
20
35.075000000000003
42
0.41421356237312101
10
163.66250000000002
20
35.57500000000001
10
150.66249999999999
20
35.57500000000001
42
0.41421356237309243
10
150.16249999999999
20
35.075000000000003
0
LWPOLYLINE
5
171
100
AcDbEntity
8
0
100
AcDbPolyline
90
8
70
1
43
0.0
10
2.5250000000000017
20
22.074999999999999
42
0.4142135623730957
10
3.0249999999999999
20
21.575000000000003
10
16.024999999999999
20
21.575000000000003
42
0.41421356237309631
10
16.524999999999999
20
22.074999999999999
10
16.525000000000002
20
35.075000000000003
42
0.41421356237310025
10
16.024999999999991
20
35.57500000000001
10
3.0249999999999999
20
35.575000000000003
42
0.41421356237309537
10
2.5250000000000128
20
35.075000000000003
0
LWPOLYLINE
5
172
100
AcDbEntity
8
0
100
AcDbPolyline
90
8
70
1
43
0.0
10
374.00000000000006
20
3.0249999999999999
42
0.41421356237310997
10
374.5
20
2.525000000000003
10
387.5
20
2.5249999999999573
42
0.41421356237303031
10
388.00000000000006
20
3.0249999999999999
10
388
20
16.024999999999999
42
0.41421356237311063
10
387.5
20
16.524999999999999
10
374.5
20
16.525000000000041
42
0.41421356237302998
10
374
20
16.024999999999999
0
LWPOLYLINE
5
173
100
AcDbEntity
8
0
100
AcDbPolyline
90
8
70
1
43
0.0
10
354.95000000000005
20
3.0249999999999999
42
0.41421356237310997
10
355.45000000000005
20
2.525000000000003
10
368.44999999999999
20
2.5249999999999573
42
0.41421356237303031
10
368.95000000000005
20
3.0249999999999999
10
368.94999999999993
20
16.024999999999999
42
0.41421356237311063
10
368.44999999999999
20
16.524999999999999
10
355.45000000000005
20
16.525000000000041
42
0.41421356237302998
10
354.94999999999999
20
16.024999999999999
0
LWPOLYLINE
5
174
100
AcDbEntity
8
0
100
AcDbPolyline
90
8
70
1
43
0.0
10
335.90000000000003
20
3.0249999999999999
42
0.41421356237310997
10
336.39999999999998
20
2.525000000000003
10
349.39999999999998
20
2.5249999999999573
42
0.41421356237303031
10
349.90000000000003
20
3.0249999999999999
10
349.89999999999998
20
16.024999999999999
42
0.41421356237311063
10
349.39999999999998
20
16.524999999999999
10
336.39999999999998
20
16.525000000000041
42
0.41421356237302998
10
335.89999999999998
20
16.024999999999999
0
LWPOLYLINE
5
175
100
AcDbEntity
8
0
100
AcDbPolyline
90
20
70
1
43
0.0
10
325.00049999999999
20
16.524999999999999
10
325.50700000000006
20
16.525000000000013
42
-0.41421356237311846
10
326.00700000000006
20
16.024999999999999
10
326.00700000000006
20
3.0249999999999999
42
-0.41421356237311746
10
325.50700000000006
20
2.5250000000000039
10
293.45700000000005
20
2.5249999999999906
42
-0.41421356237307549
10
292.95699999999999
20
3.0249999999999999
10
292.95700000000005
20
16.024999999999999
42
-0.41421356237314316
10
293.45700000000005
20
16.525000000000002
10
294.04400000000004
20
16.524999999999999
10
294.04400000000004
20
18.024999999999999
42
-0.41421356237314189
10
294.54400000000004
20
18.524999999999999
10
300.62450000000001
20
18.524999999999977
42
-0.4142135623730781
10
301.12450000000001
20
18.024999999999999
10
301.12450000000001
20
16.524999999999999
10
317.92000000000002
20
16.524999999999999
10
317.92000000000002
20
18.024999999999999
42
-0.41421356237314189
10
318.42000000000002
20
18.524999999999999
10
324.50049999999999
20
18.524999999999995
42
-0.41421356237319257
10
325.00049999999993
20
18.024999999999999
0
LWPOLYLINE
5
176
100
AcDbEntity
8
0
100
AcDbPolyline
90
8
70
1
43
0.0
10
273.98750000000001
20
3.0249999999999999
42
0.41421356237304624
10
274.48750000000007
20
2.5250000000000048
10
287.48750000000001
20
2.5249999999999928
42
0.41421356237310153
10
287.98750000000001
20
3.0249999999999999
10
287.98750000000001
20
16.024999999999999
42
0.41421356237304563
10
287.48750000000001
20
16.524999999999999
10
274.48750000000007
20
16.525000000000006
42
0.41421356237312362
10
273.98750000000001
20
16.024999999999999
0
LWPOLYLINE
5
177
100
AcDbEntity
8
0
100
AcDbPolyline
90
8
70
1
43
0.0
10
254.93750000000003
20
3.0249999999999999
42
0.41421356237304624
10
255.43750000000003
20
2.5250000000000048
10
268.4375
20
2.5249999999999928
42
0.41421356237310153
10
268.9375
20
3.0249999999999999
10
268.9375
20
16.024999999999999
42
0.41421356237304563
10
268.4375
20
16.524999999999999
10
255.43750000000003
20
16.525000000000006
42
0.41421356237312362
10
254.93750000000003
20
16.024999999999999
0
LWPOLYLINE
5
178
100
AcDbEntity
8
0
100
AcDbPolyline
90
8
70
1
43
0.0
10
235.88750000000002
20
3.0249999999999999
42
0.41421356237304624
10
236.38750000000002
20
2.5250000000000048
10
249.38749999999999
20
2.5249999999999928
42
0.41421356237310153
10
249.88749999999999
20
3.0249999999999999
10
249.88749999999999
20
16.024999999999999
42
0.41421356237304563
10
249.38749999999999
20
16.524999999999999
10
236.38750000000002
20
16.525000000000006
42
0.41421356237312362
10
235.88750000000002
20
16.024999999999999
0
LWPOLYLINE
5
179
100
AcDbEntity
8
0
100
AcDbPolyline
90
8
70
1
43
0.0
10
63.649999999999984
20
78.724999999999994
10
45.807000000000016
20
78.724999999999994
42
-0.41421356237310542
10
45.307000000000023
20
79.224999999999994
10
45.307000000000031
20
92.224999999999994
42
-0.41421356237312623
10
45.807000000000016
20
92.725000000000009
10
63.649999999999984
20
92.725000000000009
42
-0.41421356237312101
10
64.149999999999991
20
92.224999999999994
10
64.150000000000006
20
79.224999999999994
42
-0.41421356237312623
0
LWPOLYLINE
5
180
100
AcDbEntity
8
0
100
AcDbPolyline
90
8
70
1
43
0.0
10
48.268750000000004
20
54.625000000000014
10
66.031250000000028
20
54.625
42
-0.4142135623730846
10
66.53125
20
54.125000000000007
10
66.53125
20
41.125
42
-0.41421356237309503
10
66.03125
20
40.625
10
48.268750000000004
20
40.625
42
-0.41421356237309503
10
47.768750000000004
20
41.125
10
47.768749999999997
20
54.125000000000007
42
-0.41421356237310542
0
LWPOLYLINE
5
181
100
AcDbEntity
8
0
100
AcDbPolyline
90
8
70
1
43
0.0
10
374.49999999999994
20
54.625027645342669
10
387.5
20
54.625027645342641
42
-0.41421356237309503
10
388
20
54.125027645342669
10
388
20
41.125000000000007
42
-0.41421356237309503
10
387.5
20
40.625000000000007
10
374.49999999999994
20
40.625000000000036
42
-0.41421356237309503
10
374
20
41.125000000000007
10
374
20
54.125027645342669
42
-0.41421356237309503
0
LWPOLYLINE
5
182
100
AcDbEntity
8
0
100
AcDbPolyline
90
20
70
1
43
0.0
10
343.95505239950046
20
76.725001162290567
10
337.9550523995004
20
76.725001162290596
42
-0.41421356237309503
10
337.4550523995004
20
77.225001162290567
10
337.4550523995004
20
78.724999999999994
10
336.39999999999998
20
78.725000000000009
42
-0.41421356237310542
10
335.90000000000003
20
79.224999999999994
10
335.90000000000003
20
92.224999999999994
42
-0.41421356237303258
10
336.39999999999998
20
92.725000000000051
10
368.44999999999999
20
92.724999999999994
42
-0.41421356237310542
10
368.94999999999993
20
92.224999999999994
10
368.95000000000005
20
79.224999999999994
42
-0.4142135623730222
10
368.44999999999999
20
78.724999999999952
10
367.89305239950056
20
78.724999999999994
10
367.89305239950056
20
77.224591343830781
42
-0.41421356237309503
10
367.39305239950056
20
76.724591343830781
10
361.39305239950045
20
76.724591343830809
42
-0.41421356237309503
10
360.8930523995005
20
77.224591343830781
10
360.8930523995005
20
78.724999999999994
10
344.45505239950046
20
78.724999999999994
10
344.45505239950046
20
77.225001162290567
42
-0.41421356237309503
0
LWPOLYLINE
5
183
100
AcDbEntity
8
0
100
AcDbPolyline
90
8
70
1
43
0.0
10
307.74450000000002
20
92.725000000000023
10
325.50700000000006
20
92.725000000000023
42
-0.41421356237312623
10
326.00700000000006
20
92.224999999999994
10
326.00700000000006
20
79.224999999999994
42
-0.41421356237311063
10
325.50700000000006
20
78.725000000000009
10
307.74450000000002
20
78.72499999999998
42
-0.4142135623730378
10
307.24450000000002
20
79.224999999999994
10
307.24450000000002
20
92.224999999999994
42
-0.41421356237306384
0
LWPOLYLINE
5
184
100
AcDbEntity
8
0
100
AcDbPolyline
90
14
70
1
43
0.0
10
311.27625000000006
20
75.675000000000011
10
317.35675000000003
20
75.675000000000026
42
-0.4142135623730222
10
317.85675000000003
20
75.174999999999997
10
317.85674999999998
20
73.674999999999997
10
325.50700000000006
20
73.675000000000011
42
-0.41421356237312101
10
326.00700000000006
20
73.174999999999997
10
326.00700000000006
20
60.174999999999997
42
-0.41421356237311063
10
325.50700000000006
20
59.675000000000011
10
312.50700000000006
20
59.675000000000018
42
-0.41421356237310025
10
312.00700000000001
20
60.174999999999997
10
312.00700000000006
20
60.674999999999997
10
311.27625000000006
20
60.675000000000018
42
-0.41421356237310025
10
310.77625
20
61.174999999999997
10
310.77625000000006
20
75.174999999999997
42
-0.41421356237314705
0
LWPOLYLINE
5
185
100
AcDbEntity
8
0
100
AcDbPolyline
90
8
70
1
43
0.0
10
92.144500000000022
20
78.725000000000009
10
72.000750000000011
20
78.724999999999994
42
-0.41421356237310542
10
71.500750000000025
20
79.224999999999994
10
71.500750000000025
20
92.224999999999994
42
-0.41421356237311585
10
72.000750000000025
20
92.725000000000009
10
92.144500000000022
20
92.724999999999994
42
-0.41421356237313667
10
92.644500000000022
20
92.224999999999994
10
92.644500000000036
20
79.224999999999994
42
-0.41421356237310542
0
LWPOLYLINE
5
186
100
AcDbEntity
8
0
100
AcDbPolyline
90
8
70
1
43
0.0
10
279.16950000000003
20
92.725000000000009
10
299.39374999999995
20
92.724999999999994
42
-0.4142135623730846
10
299.89375000000001
20
92.224999999999994
10
299.89375000000001
20
79.224999999999994
42
-0.41421356237313667
10
299.39375000000001
20
78.724999999999994
10
279.16950000000003
20
78.725000000000009
42
-0.41421356237310025
10
278.66949999999997
20
79.224999999999994
10
278.66950000000003
20
92.224999999999994
42
-0.41421356237314705
0
LWPOLYLINE
5
187
100
AcDbEntity
8
0
100
AcDbPolyline
90
8
70
1
43
0.0
10
113.57575000000004
20
78.724999999999994
10
95.813250000000039
20
78.725000000000009
42
-0.41421356237312623
10
95.313250000000025
20
79.224999999999994
10
95.313250000000025
20
92.224999999999994
42
-0.41421356237309503
10
95.813250000000039
20
92.725000000000009
10
113.57575000000003
20
92.725000000000009
42
-0.41421356237315748
10
114.07575
20
92.224999999999994
10
114.07575000000001
20
79.224999999999994
42
-0.41421356237308982
0
LWPOLYLINE
5
188
100
AcDbEntity
8
0
100
AcDbPolyline
90
99
70
1
43
0.0
10
199.80074999999999
20
83.724999999999994
10
199.80074999999997
20
79.224999999999994
42
-0.41421356237304818
10
199.30075000000002
20
78.724999999999994
10
184.61275000000001
20
78.725000000000023
42
0.4142135623730534
10
184.36275000000001
20
78.474999999999994
10
184.36275000000001
20
77.224999999999994
42
-0.41421356237313667
10
183.86275000000001
20
76.724999999999994
10
177.86275000000003
20
76.72499999999998
42
-0.4142135623730222
10
177.36275000000003
20
77.224999999999994
10
177.36275000000006
20
78.724999999999994
10
167.25075000000004
20
78.72499999999998
42
-0.4142135623730378
10
166.75075000000007
20
79.224999999999994
10
166.75075000000007
20
83.224999999999994
10
160.61375000000004
20
83.224999999999994
10
160.61375000000004
20
77.224999999999994
42
-0.41421356237312623
10
160.11375000000001
20
76.724999999999994
10
154.11375000000004
20
76.725000000000009
42
-0.41421356237310542
10
153.61375000000004
20
77.224999999999994
10
153.61375000000004
20
83.224999999999994
10
152.17575000000002
20
83.224999999999994
10
152.17575000000005
20
79.224999999999994
42
-0.41421356237309503
10
151.67575000000005
20
78.725000000000009
10
138.67575000000002
20
78.725000000000009
42
-0.41421356237312623
10
138.17575000000002
20
79.224999999999994
10
138.17575000000002
20
83.725000000000009
10
136.73775000000003
20
83.725000000000009
10
136.73775000000003
20
77.224999999999994
42
-0.41421356237310025
10
136.23775000000001
20
76.724999999999994
10
120.75075000000001
20
76.725000000000009
42
-0.41421356237310542
10
120.25075000000001
20
77.224999999999994
10
120.25075000000001
20
92.224999999999994
42
-0.41421356237309503
10
120.75075000000001
20
92.725000000000009
10
136.23775000000001
20
92.725000000000009
42
-0.41421356237309503
10
136.73775000000003
20
92.224999999999994
10
136.73775000000003
20
88.225000000000023
10
138.17575000000002
20
88.225000000000023
10
138.17575000000002
20
92.224999999999994
42
-0.41421356237309503
10
138.67575000000002
20
92.725000000000009
10
151.67575000000002
20
92.724999999999994
42
-0.41421356237313667
10
152.17575000000002
20
92.224999999999994
10
152.17575000000002
20
88.225000000000023
10
153.61375000000004
20
88.225000000000023
10
153.61375000000004
20
92.224999999999994
42
-0.41421356237310542
10
154.11375000000001
20
92.725000000000009
10
160.11375000000001
20
92.725000000000023
42
-0.41421356237310542
10
160.61375000000001
20
92.224999999999994
10
160.61375000000004
20
88.225000000000023
10
166.75075000000004
20
88.225000000000023
10
166.75075000000007
20
92.224999999999994
42
-0.41421356237304302
10
167.25075000000001
20
92.725000000000009
10
199.30075000000002
20
92.725000000000009
42
-0.41421356237299095
10
199.80074999999999
20
92.224999999999994
10
199.80075000000002
20
87.725000000000009
10
201.23875000000001
20
87.725000000000009
10
201.23875000000004
20
92.224999999999994
42
-0.41421356237310542
10
201.73875000000004
20
92.725000000000009
10
207.73875000000004
20
92.725000000000023
42
-0.41421356237310542
10
208.23875000000004
20
92.224999999999994
10
208.23875000000004
20
88.225000000000023
10
219.13825000000003
20
88.225000000000023
10
219.13825000000003
20
92.224999999999994
42
-0.41421356237309503
10
219.63825
20
92.724999999999966
10
232.63824999999997
20
92.724999999999994
42
-0.4142135623730846
10
233.13825000000003
20
92.224999999999994
10
233.13824999999997
20
88.225000000000023
10
238.18825000000004
20
88.225000000000023
10
238.18825000000004
20
92.224999999999994
42
-0.41421356237314705
10
238.68825000000004
20
92.725000000000009
10
254.06950000000001
20
92.725000000000009
42
-0.41421356237299095
10
254.56950000000001
20
92.224999999999994
10
254.56950000000006
20
79.224999999999994
42
-0.41421356237309503
10
254.06950000000006
20
78.725000000000009
10
246.38750000000002
20
78.724999999999994
10
246.38750000000002
20
77.224999999999994
42
-0.41421356237309503
10
245.88750000000002
20
76.725000000000009
10
239.80700000000002
20
76.724999999999994
42
-0.41421356237307422
10
239.30700000000002
20
77.224999999999966
10
239.30700000000004
20
78.724999999999994
10
238.68825000000004
20
78.725000000000009
42
-0.41421356237310025
10
238.18825000000001
20
79.224999999999994
10
238.18825000000004
20
83.224999999999994
10
233.13825000000003
20
83.224999999999994
10
233.13825000000003
20
79.224999999999994
42
-0.41421356237314705
10
232.63825
20
78.724999999999994
10
227.33125000000001
20
78.724999999999994
10
227.33125000000004
20
77.224999999999994
42
-0.41421356237309503
10
226.83125000000004
20
76.725000000000009
10
220.75075000000001
20
76.725000000000023
42
-0.41421356237307422
10
220.25075000000001
20
77.224999999999994
10
220.25075000000001
20
78.724999999999994
10
219.63825
20
78.72499999999998
42
-0.4142135623730378
10
219.13825000000003
20
79.224999999999994
10
219.13825
20
83.224999999999994
10
208.23875000000004
20
83.224999999999994
10
208.2387500000001
20
77.225000000000023
42
-0.41421356237312623
10
207.73875000000004
20
76.725000000000009
10
201.73875000000004
20
76.724999999999994
42
-0.4142135623730222
10
201.23875000000001
20
77.225000000000023
10
201.23875000000001
20
83.724999999999994
0
LWPOLYLINE
5
189
100
AcDbEntity
8
0
100
AcDbPolyline
90
32
70
1
43
0.0
10
292.16275000000002
20
56.625
10
298.24324999999999
20
56.625000000000028
42
-0.4142135623730222
10
298.74325000000005
20
56.125000000000007
10
298.74324999999999
20
54.625
10
313.60075000000006
20
54.625000000000014
42
-0.41421356237307422
10
314.10075000000012
20
54.125000000000007
10
314.10075000000006
20
53.538000000000004
10
315.53875000000005
20
53.538000000000004
10
315.53875000000005
20
56.125000000000007
42
-0.41421356237307944
10
316.03875000000005
20
56.625000000000014
10
322.12575000000004
20
56.625
42
-0.41421356237310542
10
322.62574999999998
20
56.125000000000007
10
322.62575000000004
20
45.100000000000009
10
323.12575000000004
20
45.09999999999998
42
-0.4142135623732251
10
323.62575000000004
20
44.600000000000001
10
323.62575000000004
20
31.600000000000001
42
-0.41421356237319651
10
323.12574999999993
20
31.10000000000003
10
321.32499999999999
20
31.100000000000001
10
321.32499999999999
20
22.074999999999999
42
-0.4142135623730222
10
320.82500000000005
20
21.575000000000028
10
307.74450000000002
20
21.574999999999989
42
-0.41421356237301438
10
307.24450000000002
20
22.074999999999999
10
307.24450000000002
20
35.075000000000003
42
-0.41421356237310802
10
307.74450000000002
20
35.575000000000017
10
309.62575000000004
20
35.575000000000003
10
309.62575000000004
20
40.625
10
288.69450000000006
20
40.624999999999993
42
-0.41421356237307422
10
288.19450000000001
20
41.125
10
288.19450000000006
20
54.125000000000007
42
-0.41421356237313667
10
288.69450000000006
20
54.625
10
291.66275000000002
20
54.625
10
291.66274999999996
20
56.125000000000007
42
-0.41421356237311585
0
LWPOLYLINE
5
190
100
AcDbEntity
8
0
100
AcDbPolyline
90
20
70
1
43
0.0
10
49.275250000000021
20
75.674999999999997
10
55.355750000000015
20
75.674999999999997
42
-0.41421356237308982
10
55.85575
20
75.174999999999997
10
55.85575
20
73.674999999999997
10
72.651250000000019
20
73.674999999999997
10
72.651250000000019
20
75.174999999999997
42
-0.41421356237310542
10
73.151250000000019
20
75.674999999999997
10
79.231750000000005
20
75.674999999999997
42
-0.41421356237310542
10
79.731750000000005
20
75.174999999999997
10
79.731750000000005
20
73.674999999999997
10
82.619500000000016
20
73.674999999999997
42
-0.41421356237308982
10
83.119500000000031
20
73.174999999999997
10
83.119500000000031
20
60.174999999999997
42
-0.41421356237307944
10
82.619500000000045
20
59.675000000000004
10
48.188250000000025
20
59.675000000000004
42
-0.41421356237310542
10
47.688250000000025
20
60.174999999999997
10
47.688250000000025
20
73.174999999999997
42
-0.41421356237309503
10
48.188250000000025
20
73.674999999999997
10
48.775250000000021
20
73.674999999999997
10
48.775250000000021
20
75.174999999999997
42
-0.41421356237309503
0
ENDSEC
0
SECTION
2
OBJECTS
0
DICTIONARY
5
C
100
AcDbDictionary
3
ACAD_GROUP
350
D
3
ACAD_MLINESTYLE
350
17
0
DICTIONARY
5
D
100
AcDbDictionary
0
DICTIONARY
5
1A
330
C
100
AcDbDictionary
0
DICTIONARY
5
17
100
AcDbDictionary
0
ENDSEC
0
EOF
